<?xml version="1.0" standalone="no"?>
<!DOCTYPE svg PUBLIC "-//W3C//DTD SVG 20010904//EN"
 "http://www.w3.org/TR/2001/REC-SVG-20010904/DTD/svg10.dtd">
<svg version="1.0" xmlns="http://www.w3.org/2000/svg"
 width="604.000000pt" height="981.000000pt" viewBox="0 0 604.000000 981.000000"
 preserveAspectRatio="xMidYMid meet">

<g transform="translate(0.000000,981.000000) scale(0.100000,-0.100000)"
fill="#000000" stroke="none">
<path d="M3638 9553 c4 -20 2 -25 -10 -21 -8 4 -21 2 -29 -3 -10 -6 -8 -9 11
-9 l25 -1 -25 -15 c-17 -10 -18 -13 -5 -8 11 3 25 6 30 6 6 0 19 -3 30 -6 13
-5 12 -2 -5 8 l-25 15 25 2 c17 1 20 3 8 6 -10 2 -18 13 -18 23 0 10 -4 21 -9
24 -4 3 -6 -6 -3 -21z"/>
<path d="M3695 9541 c0 -21 4 -37 10 -35 6 2 10 20 10 39 0 19 -4 35 -10 35
-5 0 -10 -17 -10 -39z"/>
<path d="M3733 9546 c3 -19 0 -39 -6 -47 -10 -11 -9 -11 6 0 11 9 17 10 17 2
0 -6 7 -11 15 -11 8 0 15 5 15 12 0 6 -3 8 -7 5 -6 -7 -33 37 -33 54 0 16 18
9 23 -8 4 -14 5 -12 6 5 1 16 -5 22 -20 22 -19 0 -21 -4 -16 -34z"/>
<path d="M3818 9573 c-16 -4 -16 -6 -4 -19 19 -18 27 -18 20 1 -4 8 -1 15 6
15 6 0 8 -4 5 -10 -3 -5 -1 -10 5 -10 14 0 8 23 -6 26 -5 1 -17 0 -26 -3z"/>
<path d="M3906 9568 c-11 -34 -3 -49 22 -43 17 4 23 2 19 -7 -2 -7 -13 -11
-23 -10 -10 2 -16 1 -13 -3 11 -10 69 -15 69 -5 0 5 -4 12 -10 15 -5 3 -10 17
-10 31 0 17 4 23 12 18 7 -4 8 -3 4 5 -5 7 -12 9 -19 3 -7 -5 -20 -12 -31 -16
-14 -5 -17 -2 -12 9 3 8 3 15 0 15 -2 0 -6 -6 -8 -12z m44 -22 c0 -2 -7 -6
-15 -10 -8 -3 -15 -1 -15 4 0 6 7 10 15 10 8 0 15 -2 15 -4z"/>
<path d="M4005 9539 c3 -42 14 -66 16 -33 1 10 2 31 3 47 2 16 -2 27 -9 27 -8
0 -12 -14 -10 -41z"/>
<path d="M4040 9565 c0 -8 9 -15 20 -15 11 0 20 7 20 15 0 8 -9 15 -20 15 -11
0 -20 -7 -20 -15z"/>
<path d="M3600 9560 c20 -13 33 -13 25 0 -3 6 -14 10 -23 10 -15 0 -15 -2 -2
-10z"/>
<path d="M3825 9530 c-11 -5 -14 -9 -7 -9 6 -1 12 -5 12 -10 0 -5 -6 -11 -12
-14 -7 -2 -2 -2 12 0 36 6 55 24 38 34 -15 10 -17 10 -43 -1z m35 -4 c0 -3 -4
-8 -10 -11 -5 -3 -10 -1 -10 4 0 6 5 11 10 11 6 0 10 -2 10 -4z"/>
<path d="M4044 9523 c2 -10 -2 -21 -8 -25 -6 -4 5 -8 24 -8 19 0 30 4 24 8 -6
4 -10 15 -8 25 1 11 -4 17 -16 17 -12 0 -17 -6 -16 -17z"/>
<path d="M3628 9443 c6 -2 18 -2 25 0 6 3 1 5 -13 5 -14 0 -19 -2 -12 -5z"/>
<path d="M3788 9443 c7 -3 16 -2 19 1 4 3 -2 6 -13 5 -11 0 -14 -3 -6 -6z"/>
<path d="M3618 9322 c-11 -2 -18 -13 -18 -27 0 -13 -3 -32 -6 -42 -5 -15 -4
-15 5 -3 7 10 11 11 11 3 0 -7 8 -13 18 -12 10 0 12 3 5 6 -22 8 -14 21 15 26
24 4 24 4 -8 7 l-35 3 35 7 35 7 -35 3 -35 3 35 6 c27 5 30 8 15 12 -11 3 -28
3 -37 1z"/>
<path d="M3708 9323 c7 -3 16 -2 19 1 4 3 -2 6 -13 5 -11 0 -14 -3 -6 -6z"/>
<path d="M3750 9321 c0 -21 2 -26 11 -23 5 1 9 -9 9 -23 0 -14 -4 -25 -10 -25
-5 0 -10 8 -10 18 0 14 -2 15 -10 2 -9 -13 -10 -13 -10 0 0 13 -1 13 -10 0 -5
-8 -12 -12 -15 -8 -3 3 1 13 10 22 15 15 15 16 -2 16 -12 0 -18 -8 -19 -26 -2
-21 2 -25 17 -21 10 3 19 2 19 -3 0 -4 10 -7 23 -6 28 1 36 48 13 72 -9 8 -16
11 -16 5z"/>
<path d="M3831 9313 c-10 -11 -16 -12 -21 -3 -5 9 -9 8 -13 -3 -9 -23 8 -40
33 -32 16 5 21 4 18 -6 -3 -8 -15 -13 -29 -11 -13 2 -21 1 -18 -2 3 -3 22 -8
43 -10 35 -5 37 -4 30 17 -4 12 -11 24 -16 25 -5 2 -4 10 3 18 7 8 9 17 5 21
-3 3 -6 0 -6 -8 0 -10 -3 -10 -8 -3 -5 9 -11 8 -21 -3z m4 -23 c-3 -5 -11 -10
-16 -10 -6 0 -7 5 -4 10 3 6 11 10 16 10 6 0 7 -4 4 -10z"/>
<path d="M3902 9324 c4 -3 2 -19 -2 -35 -5 -18 -5 -27 1 -24 5 4 9 -2 10 -12
0 -14 2 -14 9 5 5 12 14 22 20 22 12 0 9 -22 -5 -32 -5 -4 4 -8 20 -8 23 0 27
3 15 10 -13 9 -13 10 0 10 12 0 13 2 1 9 -11 7 -11 9 0 14 8 3 0 6 -18 6 -26
1 -31 4 -28 21 3 13 -2 20 -12 20 -9 0 -14 -3 -11 -6z"/>
<path d="M3955 9321 l20 -8 -20 -5 c-18 -5 -18 -6 3 -7 13 -1 22 5 22 14 0 9
-9 15 -22 14 -22 0 -22 -1 -3 -8z"/>
<path d="M3655 9250 c-3 -5 -1 -10 4 -10 6 0 11 5 11 10 0 6 -2 10 -4 10 -3 0
-8 -4 -11 -10z"/>
<path d="M3556 9182 c-3 -5 1 -9 9 -9 8 0 12 4 9 9 -3 4 -7 8 -9 8 -2 0 -6 -4
-9 -8z"/>
<path d="M3597 9067 c-3 -8 -2 -29 3 -48 8 -33 15 -17 10 25 -1 10 4 23 12 27
10 7 9 9 -3 9 -9 0 -19 -6 -22 -13z"/>
<path d="M3640 9071 c0 -5 6 -12 13 -15 6 -4 2 -4 -10 -2 -14 3 -23 -1 -23 -9
0 -7 14 -15 30 -17 24 -4 30 -1 25 9 -3 8 -5 18 -5 23 0 4 -7 10 -15 14 -8 3
-15 1 -15 -3z"/>
<path d="M3840 9073 c0 -7 -11 -15 -24 -19 -16 -4 -23 -11 -19 -20 6 -17 24
-19 21 -3 -2 6 3 14 11 17 8 3 11 0 7 -7 -4 -6 -2 -11 4 -11 7 0 10 -6 7 -12
-2 -7 -15 -11 -28 -10 -13 2 -21 1 -18 -2 10 -11 79 -15 79 -5 0 6 -6 7 -12 3
-10 -6 -10 -4 0 8 10 13 10 17 -4 22 -13 5 -14 9 -4 21 7 9 10 18 6 22 -3 3
-6 0 -6 -8 0 -11 -2 -11 -10 1 -6 10 -10 11 -10 3z"/>
<path d="M3902 9074 c4 -3 2 -19 -2 -35 -5 -18 -5 -27 1 -24 5 4 9 -2 10 -12
0 -14 2 -14 9 5 5 12 14 22 20 22 12 0 9 -22 -5 -32 -5 -4 4 -8 20 -8 23 0 27
3 15 10 -13 9 -13 10 0 10 12 0 13 2 1 9 -11 7 -11 9 0 14 8 3 0 6 -18 6 -26
1 -31 4 -28 21 3 13 -2 20 -12 20 -9 0 -14 -3 -11 -6z"/>
<path d="M3955 9071 l20 -8 -20 -5 c-18 -5 -18 -6 3 -7 13 -1 22 5 22 14 0 9
-9 15 -22 14 -22 0 -22 -1 -3 -8z"/>
<path d="M3712 9033 c-1 -17 -8 -34 -14 -36 -7 -3 10 -5 37 -6 41 0 46 2 27
10 -13 5 -28 7 -32 4 -5 -3 -11 9 -13 27 l-4 33 -1 -32z"/>
<path d="M3738 9048 c5 -5 16 -8 23 -6 8 3 3 7 -10 11 -17 4 -21 3 -13 -5z"/>
<path d="M3636 9005 c-3 -8 -1 -15 3 -15 5 0 11 7 15 15 3 8 1 15 -3 15 -5 0
-11 -7 -15 -15z"/>
<path d="M3600 8815 c-8 -37 -6 -55 6 -55 8 0 13 5 12 11 -2 6 3 14 11 17 8 2
11 0 7 -6 -3 -6 -2 -14 4 -17 8 -5 8 -11 1 -19 -8 -9 -6 -12 9 -11 11 1 23 5
27 10 5 4 2 4 -6 0 -11 -6 -13 -4 -8 8 3 9 2 19 -4 23 -6 4 -6 11 2 20 6 8 9
17 5 21 -3 3 -6 0 -6 -8 0 -11 -2 -11 -10 1 -6 10 -10 11 -10 3 0 -7 -6 -13
-14 -13 -8 0 -17 6 -19 13 -3 6 -6 8 -7 2z"/>
<path d="M3695 8786 c0 -19 4 -38 8 -43 5 -4 7 -3 5 4 -4 14 2 16 25 7 15 -5
16 -9 5 -15 -9 -6 -3 -9 17 -9 20 0 26 3 17 9 -8 4 -14 12 -14 16 0 4 6 12 14
17 9 6 3 8 -19 6 -24 -3 -33 0 -36 14 -3 10 -1 18 4 18 5 0 9 -4 9 -10 0 -5
10 -10 23 -9 21 0 21 1 2 8 l-20 8 20 5 c11 3 3 6 -20 7 -40 1 -41 0 -40 -33z"/>
<path d="M3806 8811 c-4 -6 -2 -11 3 -11 6 0 11 -4 11 -10 0 -5 -7 -10 -15
-10 -8 0 -15 -4 -15 -10 0 -5 7 -7 15 -4 8 4 15 2 15 -4 0 -6 -6 -13 -12 -15
-8 -3 -6 -6 5 -6 10 -1 17 6 17 17 0 19 18 42 32 42 12 0 10 -57 -2 -63 -6 -3
-5 -4 2 -3 7 1 14 18 16 38 2 28 -1 36 -17 41 -11 3 -22 0 -25 -7 -3 -8 -7 -7
-14 3 -7 9 -12 10 -16 2z"/>
<path d="M3973 8808 c0 -7 -3 -24 -7 -37 -5 -15 -5 -21 2 -17 6 3 13 -2 15
-11 4 -17 5 -17 6 0 0 9 7 17 15 17 8 0 17 -8 19 -17 4 -17 5 -17 6 0 0 9 6
17 11 17 15 0 12 36 -5 50 -13 11 -15 8 -16 -16 -1 -22 -3 -24 -7 -9 l-5 20
-8 -20 c-8 -17 -9 -15 -6 8 3 16 0 27 -8 27 -6 0 -12 -6 -12 -12z m64 -30 c-3
-8 -6 -5 -6 6 -1 11 2 17 5 13 3 -3 4 -12 1 -19z"/>
<path d="M4082 8812 c-1 -7 -7 -10 -13 -6 -8 5 -8 1 0 -13 7 -14 7 -24 -2 -33
-9 -10 -9 -11 1 -6 7 4 12 1 12 -8 0 -25 18 -19 37 12 10 15 22 30 28 34 6 5
6 11 -2 19 -14 14 -42 -9 -35 -29 2 -7 0 -20 -4 -30 -6 -12 -10 -5 -14 28 -4
25 -8 39 -8 32z"/>
<path d="M4185 8810 c-11 -5 -14 -9 -6 -9 10 -1 11 -4 3 -14 -8 -10 -6 -13 9
-13 12 0 18 5 15 13 -7 18 4 16 28 -4 20 -17 20 -17 7 0 -11 14 -11 17 0 18
12 0 -18 18 -31 18 -3 0 -14 -4 -25 -9z"/>
<path d="M3904 8796 c-10 -26 1 -51 21 -51 29 0 32 35 4 42 -22 6 -22 7 -3 14
17 7 17 8 1 8 -10 1 -20 -5 -23 -13z m28 -31 c0 -5 -5 -11 -11 -13 -6 -2 -11
4 -11 13 0 9 5 15 11 13 6 -2 11 -8 11 -13z"/>
<path d="M4136 8747 c3 -10 9 -15 12 -12 3 3 0 11 -7 18 -10 9 -11 8 -5 -6z"/>
<path d="M4190 8748 c0 -10 6 -18 14 -18 22 0 46 11 46 21 0 5 -9 4 -20 -3
-17 -11 -22 -10 -30 2 -8 13 -10 12 -10 -2z"/>
<path d="M3595 8740 c-3 -6 1 -7 9 -4 18 7 21 14 7 14 -6 0 -13 -4 -16 -10z"/>
<path d="M3490 8680 c0 -5 5 -10 10 -10 6 0 10 5 10 10 0 6 -4 10 -10 10 -5 0
-10 -4 -10 -10z"/>
<path d="M2572 8555 c-15 -32 -15 -38 -2 -30 14 9 13 -8 -2 -23 -9 -9 -9 -12
0 -12 7 0 12 4 12 8 0 4 11 9 25 10 25 2 34 -15 16 -33 -6 -6 1 -10 19 -11 17
-1 31 5 35 14 4 12 3 13 -10 2 -18 -15 -20 1 -2 19 10 10 8 11 -8 6 l-20 -7
20 18 c17 14 17 16 3 11 -10 -4 -18 -2 -18 3 0 6 8 10 18 11 13 0 14 2 2 6 -8
3 -18 11 -22 17 -6 8 -8 8 -8 0 0 -7 -11 -14 -25 -16 -21 -5 -25 -2 -20 13 9
28 0 23 -13 -6z m52 -24 c3 -5 -3 -11 -14 -14 -20 -5 -26 3 -13 16 9 10 21 9
27 -2z"/>
<path d="M2705 8548 c1 -13 -2 -31 -7 -42 -7 -12 -7 -16 0 -12 6 3 13 -4 15
-16 4 -20 4 -19 6 5 1 20 5 26 14 21 8 -5 8 -2 -2 9 -11 14 -11 17 0 17 11 0
11 2 -1 10 -13 9 -13 11 0 20 12 8 11 10 -6 10 -15 0 -20 -6 -19 -22z"/>
<path d="M2750 8549 c0 -15 5 -20 22 -17 34 5 37 38 4 38 -20 0 -26 -5 -26
-21z m40 1 c0 -5 -7 -10 -15 -10 -8 0 -15 5 -15 10 0 6 7 10 15 10 8 0 15 -4
15 -10z"/>
<path d="M2838 8563 c6 -2 12 -13 12 -23 0 -10 -6 -21 -12 -23 -10 -4 -9 -6 1
-6 11 -1 11 -4 0 -18 -8 -9 -9 -14 -2 -10 6 4 19 4 30 0 16 -6 15 -8 -7 -14
-18 -5 -11 -7 25 -7 36 0 43 2 25 7 -22 6 -23 8 -7 14 11 4 24 4 30 0 7 -4 7
-1 -1 9 -10 13 -10 17 0 21 10 4 10 6 1 6 -7 1 -13 10 -13 20 0 11 6 22 13 24
6 3 -15 5 -48 5 -33 0 -54 -2 -47 -5z m65 -10 c-7 -2 -21 -2 -30 0 -10 3 -4 5
12 5 17 0 24 -2 18 -5z m-3 -23 c0 -5 -7 -10 -15 -10 -8 0 -15 5 -15 10 0 6 7
10 15 10 8 0 15 -4 15 -10z m-20 -30 c0 -5 -4 -10 -10 -10 -5 0 -10 5 -10 10
0 6 5 10 10 10 6 0 10 -4 10 -10z m30 0 c0 -5 -4 -10 -10 -10 -5 0 -10 5 -10
10 0 6 5 10 10 10 6 0 10 -4 10 -10z"/>
<path d="M2966 8540 c1 -16 2 -40 3 -53 2 -39 31 -29 31 10 0 18 -4 33 -10 33
-14 0 -12 27 3 33 6 3 3 6 -8 6 -16 1 -20 -5 -19 -29z m21 -52 c-3 -7 -5 -2
-5 12 0 14 2 19 5 13 2 -7 2 -19 0 -25z"/>
<path d="M3011 8552 c-1 -13 6 -30 14 -38 8 -9 15 -11 15 -5 0 6 7 11 15 11
10 0 15 9 14 28 -2 23 -2 24 -6 5 -2 -13 -8 -23 -13 -23 -5 0 -11 10 -13 23
-4 21 -4 21 -7 -3 l-2 -25 -8 25 c-8 25 -8 25 -9 2z"/>
<path d="M4593 8547 c-3 -6 -1 -7 5 -3 7 4 12 1 12 -6 0 -9 3 -9 10 2 8 13 10
12 10 -2 0 -12 -8 -18 -22 -19 -15 -1 -11 -4 12 -9 32 -7 33 -7 7 -9 -16 0
-26 -5 -23 -10 3 -5 16 -7 28 -3 14 3 19 2 14 -6 -4 -7 -2 -12 3 -12 10 0 13
7 10 26 0 4 5 11 13 15 9 6 7 9 -9 9 -14 0 -23 6 -23 16 0 8 4 13 9 9 5 -3 12
-1 15 4 3 5 -10 9 -29 9 -19 0 -38 -5 -42 -11z"/>
<path d="M4700 8551 c0 -6 7 -11 15 -11 8 0 15 -5 15 -11 0 -6 -7 -9 -15 -5
-9 3 -15 0 -15 -9 0 -8 7 -15 15 -15 21 0 19 -18 -2 -23 -10 -3 2 -5 27 -5 25
0 37 2 28 5 -19 5 -24 19 -9 25 5 2 11 14 13 28 3 22 -1 25 -34 28 -22 2 -38
-1 -38 -7z"/>
<path d="M4808 8553 c15 -6 16 -43 1 -43 -5 0 -7 -5 -4 -10 4 -6 16 -8 28 -6
13 4 9 0 -7 -8 l-30 -14 41 2 c24 0 37 4 30 8 -9 6 -8 11 3 18 12 8 10 10 -10
11 -14 0 -19 3 -12 6 6 2 12 11 12 18 0 7 6 16 13 18 6 3 -8 5 -33 5 -25 0
-39 -2 -32 -5z"/>
<path d="M4916 8552 c-15 -3 -16 -6 -5 -13 11 -7 12 -14 2 -41 -11 -30 -11
-31 2 -14 8 11 15 28 15 37 0 12 9 19 28 21 l27 3 -25 6 c-14 2 -34 3 -44 1z"/>
<path d="M5003 8539 c-1 -10 3 -19 8 -19 6 0 5 -8 -1 -21 -7 -11 -9 -23 -7
-26 3 -2 8 5 12 16 3 12 11 21 16 21 6 0 7 -9 4 -20 -4 -11 -2 -20 4 -20 6 0
10 3 10 8 -4 22 3 32 24 33 16 1 18 2 5 6 -21 5 -24 23 -5 23 8 0 8 3 -2 9 -8
5 -21 7 -28 4 -12 -5 -12 -7 -2 -14 8 -4 10 -11 7 -15 -10 -10 -40 4 -33 15 3
5 2 12 -3 15 -4 2 -9 -4 -9 -15z"/>
<path d="M2400 8540 c0 -5 5 -10 11 -10 5 0 7 5 4 10 -3 6 -8 10 -11 10 -2 0
-4 -4 -4 -10z"/>
<path d="M3796 8524 c-4 -14 -5 -28 -3 -31 3 -2 8 8 11 23 4 14 5 28 3 31 -3
2 -8 -8 -11 -23z"/>
<path d="M3983 8515 c0 -22 2 -30 4 -17 2 12 2 30 0 40 -3 9 -5 -1 -4 -23z"/>
<path d="M4007 8543 c-2 -5 -1 -21 3 -38 l6 -30 5 33 c5 30 -4 53 -14 35z"/>
<path d="M4103 8535 c-3 -9 -3 -18 -1 -21 3 -3 8 4 11 16 6 23 -1 27 -10 5z"/>
<path d="M4183 8515 c0 -22 2 -30 4 -17 2 12 2 30 0 40 -3 9 -5 -1 -4 -23z"/>
<path d="M4396 8535 c-3 -9 -6 -22 -5 -28 0 -7 5 -1 10 12 5 13 8 26 5 28 -2
2 -6 -3 -10 -12z"/>
<path d="M4420 8508 c-3 -26 -1 -43 3 -39 5 5 7 26 5 47 l-3 39 -5 -47z"/>
<path d="M3591 8524 c0 -11 3 -14 6 -6 3 7 2 16 -1 19 -3 4 -6 -2 -5 -13z"/>
<path d="M3612 8515 c-7 -15 -11 -30 -8 -32 7 -7 28 36 24 49 -2 6 -9 -2 -16
-17z"/>
<path d="M3642 8520 c-14 -23 -16 -40 -3 -40 7 0 23 51 17 57 -1 1 -7 -7 -14
-17z"/>
<path d="M3670 8531 c0 -6 6 -8 13 -5 7 2 13 -4 14 -16 2 -22 -12 -27 -20 -7
-3 7 -6 5 -6 -5 -1 -12 6 -18 20 -18 16 0 20 5 17 27 -3 26 -38 48 -38 24z"/>
<path d="M3748 8515 c6 -36 17 -38 17 -4 0 16 -5 29 -11 29 -7 0 -9 -10 -6
-25z"/>
<path d="M3821 8508 c1 -28 2 -30 7 -10 4 13 12 23 17 23 6 0 13 -10 17 -23 4
-14 6 -17 7 -6 2 28 -10 48 -30 48 -15 0 -19 -7 -18 -32z"/>
<path d="M3884 8526 c-9 -24 4 -48 23 -44 12 2 18 12 18 28 0 29 -32 41 -41
16z m28 -28 c-15 -15 -26 -4 -18 18 5 13 9 15 18 6 9 -9 9 -15 0 -24z"/>
<path d="M3948 8510 c2 -16 7 -30 11 -30 3 0 6 14 6 30 0 17 -5 30 -11 30 -6
0 -9 -13 -6 -30z"/>
<path d="M4041 8535 c0 -5 4 -19 8 -30 5 -11 4 -25 -1 -32 -7 -9 -7 -13 0 -13
12 0 37 58 28 67 -3 3 -6 -2 -6 -13 -1 -16 -3 -15 -15 6 -8 14 -14 21 -14 15z"/>
<path d="M4130 8525 c0 -9 8 -19 17 -22 15 -6 15 -7 -3 -14 -16 -6 -16 -8 -2
-8 24 -1 31 14 12 29 -12 11 -12 15 -2 21 10 7 9 9 -4 9 -10 0 -18 -7 -18 -15z"/>
<path d="M4217 8534 c-11 -11 -8 -42 4 -50 6 -3 16 -1 22 5 9 9 8 11 -5 6 -13
-5 -17 -2 -15 14 1 22 12 28 20 11 3 -6 4 -5 3 2 -3 14 -20 21 -29 12z"/>
<path d="M4267 8525 c-9 -22 2 -45 22 -44 10 0 11 2 4 6 -16 6 -17 43 -2 43 5
0 7 -4 4 -10 -3 -5 -1 -10 5 -10 17 0 6 24 -12 28 -9 2 -18 -4 -21 -13z"/>
<path d="M4322 8505 c-1 -29 1 -32 24 -27 20 4 25 10 22 31 -2 18 -9 26 -24
27 -17 1 -21 -5 -22 -31z m38 5 c0 -11 -4 -20 -10 -20 -5 0 -10 9 -10 20 0 11
5 20 10 20 6 0 10 -9 10 -20z"/>
<path d="M4457 8534 c-4 -4 -7 -18 -7 -31 0 -18 5 -24 18 -21 10 2 17 12 17
27 0 24 -15 37 -28 25z m23 -24 c0 -11 -4 -20 -10 -20 -5 0 -10 9 -10 20 0 11
5 20 10 20 6 0 10 -9 10 -20z"/>
<path d="M4512 8510 c0 -19 2 -27 5 -17 2 9 2 25 0 35 -3 9 -5 1 -5 -18z"/>
<path d="M4531 8508 c1 -28 2 -29 7 -10 4 13 12 23 17 23 6 0 13 -10 17 -23 6
-19 7 -18 5 7 -2 23 -7 31 -24 33 -20 3 -23 -1 -22 -30z"/>
<path d="M2759 8511 c11 -7 11 -9 0 -14 -10 -4 -10 -6 -1 -6 18 -1 15 -19 -5
-24 -10 -3 0 -5 22 -5 22 0 32 2 23 5 -21 5 -24 23 -5 23 9 0 8 3 -2 9 -11 7
-11 9 0 14 8 3 1 6 -16 6 -21 0 -26 -2 -16 -8z"/>
<path d="M4957 8504 c3 -9 0 -20 -8 -26 -12 -8 -11 -9 1 -5 17 4 27 47 11 47
-6 0 -8 -7 -4 -16z"/>
<path d="M3012 8485 c0 -16 2 -22 5 -12 2 9 2 23 0 30 -3 6 -5 -1 -5 -18z"/>
<path d="M3062 8485 c0 -16 2 -22 5 -12 2 9 2 23 0 30 -3 6 -5 -1 -5 -18z"/>
<path d="M4091 8484 c0 -11 3 -14 6 -6 3 7 2 16 -1 19 -3 4 -6 -2 -5 -13z"/>
<path d="M5066 8491 c-3 -5 1 -11 9 -14 9 -4 12 -1 8 9 -6 16 -10 17 -17 5z"/>
<path d="M3030 8480 c0 -5 5 -10 11 -10 5 0 7 5 4 10 -3 6 -8 10 -11 10 -2 0
-4 -4 -4 -10z"/>
<path d="M2566 8471 c-4 -5 3 -7 14 -4 23 6 26 13 6 13 -8 0 -17 -4 -20 -9z"/>
<path d="M3578 8423 c18 -2 45 -2 60 0 15 2 0 4 -33 4 -33 0 -45 -2 -27 -4z"/>
<path d="M3863 8423 c26 -2 68 -2 95 0 26 2 4 3 -48 3 -52 0 -74 -1 -47 -3z"/>
<path d="M4088 8423 c7 -3 16 -2 19 1 4 3 -2 6 -13 5 -11 0 -14 -3 -6 -6z"/>
<path d="M4173 8423 c20 -2 54 -2 75 0 20 2 3 4 -38 4 -41 0 -58 -2 -37 -4z"/>
<path d="M3701 8290 c-2 -14 -4 -35 -5 -47 -2 -13 1 -23 6 -23 4 0 8 10 9 23
0 21 1 21 9 2 5 -11 9 -15 9 -8 1 6 4 19 7 27 4 12 2 15 -9 10 -11 -4 -17 2
-20 18 -4 23 -4 23 -6 -2z"/>
<path d="M3739 8299 c-11 -7 -9 -9 8 -9 12 0 24 -6 26 -12 4 -8 6 -7 6 3 1 21
-21 30 -40 18z"/>
<path d="M3831 8293 c-10 -11 -16 -12 -21 -3 -5 9 -9 8 -13 -3 -9 -25 8 -39
39 -31 25 6 27 5 16 -8 -8 -10 -21 -14 -35 -10 -12 3 -19 2 -16 -1 3 -4 22 -9
42 -11 33 -5 36 -3 33 16 -1 12 -8 24 -15 26 -9 3 -9 7 0 18 7 8 9 17 5 21 -3
3 -6 0 -6 -8 0 -10 -3 -10 -8 -3 -5 9 -11 8 -21 -3z m4 -23 c-3 -5 -11 -10
-16 -10 -6 0 -7 5 -4 10 3 6 11 10 16 10 6 0 7 -4 4 -10z"/>
<path d="M3905 8293 c1 -10 -2 -26 -7 -37 -7 -13 -7 -16 1 -12 6 4 11 0 11
-10 0 -34 12 -5 15 35 2 28 -2 41 -10 41 -7 0 -12 -8 -10 -17z"/>
<path d="M3955 8301 l20 -8 -20 -5 c-18 -5 -18 -6 3 -7 13 -1 22 5 22 14 0 9
-9 15 -22 14 -22 0 -22 -1 -3 -8z"/>
<path d="M4112 8294 c-10 -17 -4 -74 8 -74 14 0 32 29 27 42 -4 8 -6 7 -6 -4
-1 -9 -6 -20 -12 -24 -8 -5 -10 6 -7 35 4 45 3 48 -10 25z"/>
<path d="M4160 8300 c12 -8 10 -10 -10 -11 -17 -1 -19 -3 -7 -6 11 -3 17 -14
17 -34 0 -19 5 -29 15 -29 8 0 15 5 15 11 0 5 -4 7 -10 4 -6 -4 -10 5 -10 19
0 14 5 26 11 26 8 0 8 5 -1 15 -7 8 -18 15 -24 15 -6 0 -4 -5 4 -10z"/>
<path d="M4216 8303 c-12 -12 -6 -22 9 -17 8 4 15 1 15 -5 0 -6 -8 -11 -17
-11 -14 0 -15 -2 -5 -9 11 -6 10 -11 -3 -25 -9 -9 -12 -16 -6 -16 6 0 16 9 23
20 7 11 16 20 20 20 5 0 8 -9 8 -20 0 -11 7 -20 15 -20 8 0 15 5 15 11 0 5 -4
7 -10 4 -5 -3 -10 0 -10 9 0 8 6 17 13 19 6 3 2 6 -10 6 -26 1 -32 21 -6 21 9
0 14 2 12 4 -8 8 -57 15 -63 9z"/>
<path d="M4316 8298 c-8 -26 -2 -48 13 -49 12 0 11 -2 -3 -8 -17 -7 -17 -8 -3
-14 11 -4 18 1 22 14 4 10 11 17 16 13 6 -4 6 -11 -1 -19 -9 -11 -7 -12 7 -9
18 5 20 16 14 72 0 6 -9 12 -20 12 -14 0 -17 -6 -13 -25 3 -16 0 -25 -8 -25
-7 0 -10 7 -6 16 4 10 2 13 -6 8 -8 -5 -9 -2 -5 9 3 10 4 17 1 17 -2 0 -6 -6
-8 -12z m57 -18 c3 -11 1 -20 -4 -20 -5 0 -9 9 -9 20 0 11 2 20 4 20 2 0 6 -9
9 -20z"/>
<path d="M4413 8297 c-3 -6 -1 -7 5 -3 7 4 12 1 12 -6 0 -9 3 -9 10 2 7 11 10
11 10 2 0 -7 -10 -17 -22 -22 -21 -8 -20 -9 12 -11 31 -2 32 -2 7 -6 -15 -2
-25 -8 -22 -13 3 -4 15 -6 28 -3 18 4 19 3 7 -6 -13 -9 -13 -11 3 -11 15 0 19
6 16 26 0 4 5 11 13 15 9 6 7 9 -9 9 -14 0 -23 6 -23 16 0 8 4 13 9 9 5 -3 12
-1 15 4 3 5 -10 9 -29 9 -19 0 -38 -5 -42 -11z"/>
<path d="M4520 8301 c0 -22 13 -40 24 -34 6 3 6 1 -1 -8 -21 -21 -15 -34 16
-34 28 0 33 8 18 32 -4 6 -3 14 3 18 24 15 9 35 -25 35 -19 0 -35 -4 -35 -9z"/>
<path d="M4617 8297 c-3 -7 -2 -29 3 -48 l8 -34 1 30 c1 23 6 31 21 32 22 2
27 -12 8 -20 -10 -4 -10 -6 0 -6 18 -1 15 -19 -5 -24 -10 -3 -2 -5 17 -6 22 0
30 2 22 8 -7 4 -12 12 -11 17 4 24 -2 68 -9 59 -11 -15 -34 -18 -42 -5 -5 8
-9 7 -13 -3z"/>
<path d="M3590 8290 c0 -5 7 -7 15 -4 8 4 15 8 15 10 0 2 -7 4 -15 4 -8 0 -15
-4 -15 -10z"/>
<path d="M3649 8283 c-1 -10 0 -24 1 -32 1 -8 -4 -18 -12 -23 -10 -8 -10 -9 2
-5 8 2 16 18 18 35 2 18 8 30 13 27 5 -4 9 -1 9 4 0 19 -30 12 -31 -6z"/>
<path d="M3944 8253 c2 -10 -2 -21 -8 -25 -6 -4 3 -8 19 -8 23 0 27 3 15 10
-13 9 -13 10 0 10 12 0 13 2 1 9 -11 7 -11 9 0 14 8 3 5 6 -8 6 -15 1 -20 -4
-19 -16z"/>
<path d="M4511 8244 c0 -11 3 -14 6 -6 3 7 2 16 -1 19 -3 4 -6 -2 -5 -13z"/>
<path d="M4811 8164 c0 -11 3 -14 6 -6 3 7 2 16 -1 19 -3 4 -6 -2 -5 -13z"/>
<path d="M3498 8163 c7 -3 16 -2 19 1 4 3 -2 6 -13 5 -11 0 -14 -3 -6 -6z"/>
<path d="M3600 8055 c-11 -49 -8 -53 31 -51 22 0 39 4 39 9 0 4 -5 7 -11 7 -8
0 -7 5 1 15 7 9 10 18 6 22 -3 3 -6 0 -6 -8 0 -11 -2 -11 -10 1 -6 10 -10 11
-10 3 0 -7 -6 -13 -14 -13 -8 0 -17 6 -19 13 -3 6 -6 8 -7 2z m40 -29 c0 -2
-7 -7 -16 -10 -8 -3 -12 -2 -9 4 6 10 25 14 25 6z"/>
<path d="M3695 8026 c0 -19 4 -38 8 -43 5 -4 7 -3 5 4 -4 14 2 16 25 7 15 -5
16 -9 5 -15 -9 -6 -3 -9 17 -9 20 0 26 3 17 9 -8 4 -14 12 -14 16 0 4 6 12 14
17 9 6 2 8 -21 6 -26 -2 -35 1 -37 15 -1 9 2 17 7 17 5 0 9 -4 9 -10 0 -5 10
-10 23 -9 21 0 21 1 2 8 l-20 8 20 5 c11 3 3 6 -20 7 -40 1 -41 0 -40 -33z"/>
<path d="M3815 8050 l-20 -7 20 -5 c17 -5 17 -6 2 -7 -15 -1 -16 -4 -6 -22 8
-15 8 -24 1 -28 -6 -4 7 -6 28 -6 24 0 34 3 26 7 -8 5 -12 17 -9 28 3 13 0 20
-8 20 -12 0 -12 2 -1 9 20 12 -6 21 -33 11z m35 -40 c0 -5 -7 -10 -16 -10 -8
0 -12 5 -9 10 3 6 10 10 16 10 5 0 9 -4 9 -10z"/>
<path d="M3918 8046 c-10 -7 -15 -16 -11 -19 9 -10 61 -9 67 1 3 5 -9 6 -26 4
-22 -3 -29 -1 -23 7 4 7 14 10 22 7 8 -3 11 -1 8 4 -8 13 -16 12 -37 -4z"/>
<path d="M3918 8003 c17 -7 15 -21 -5 -26 -10 -3 2 -5 27 -5 25 0 37 2 28 5
-21 5 -23 19 -5 26 6 3 -4 5 -23 5 -19 0 -29 -2 -22 -5z"/>
<path d="M3642 7988 c-9 -12 -8 -14 8 -13 11 1 23 5 27 10 5 4 3 5 -4 2 -6 -4
-13 -2 -15 4 -2 7 -8 6 -16 -3z"/>
<path d="M3595 7980 c-3 -6 1 -7 9 -4 18 7 21 14 7 14 -6 0 -13 -4 -16 -10z"/>
<path d="M3595 7940 c3 -5 8 -10 11 -10 2 0 4 5 4 10 0 6 -5 10 -11 10 -5 0
-7 -4 -4 -10z"/>
<path d="M3638 7943 c6 -2 18 -2 25 0 6 3 1 5 -13 5 -14 0 -19 -2 -12 -5z"/>
<path d="M3699 7933 c-10 -11 -10 -14 -1 -9 14 8 16 -5 3 -19 -5 -6 -5 -19 -1
-30 8 -18 9 -18 11 5 1 14 3 35 4 48 3 26 1 27 -16 5z"/>
<path d="M3738 7943 c6 -2 18 -2 25 0 6 3 1 5 -13 5 -14 0 -19 -2 -12 -5z"/>
<path d="M3802 7933 c-12 -23 -5 -43 16 -44 14 0 13 -2 -3 -9 -11 -5 -15 -9
-8 -9 6 -1 19 -4 27 -7 12 -5 15 -2 10 10 -4 11 -1 16 11 16 11 0 15 -5 11
-15 -3 -8 -1 -15 4 -15 6 0 10 9 10 20 0 16 -7 20 -36 20 -19 0 -33 4 -30 8 3
5 20 7 38 5 25 -3 29 -2 18 6 -13 10 -13 11 0 11 13 0 13 1 0 10 -10 6 -23 4
-39 -7 -22 -14 -24 -14 -18 1 8 21 0 21 -11 -1z"/>
<path d="M3910 7930 c0 -11 6 -20 13 -21 6 0 3 -4 -8 -9 -13 -6 -15 -9 -5 -9
11 -1 12 -3 3 -9 -6 -4 6 -7 27 -7 21 0 33 3 27 7 -9 6 -8 8 3 9 10 0 8 3 -5
9 -11 5 -14 9 -7 9 6 1 12 10 12 21 0 16 -7 20 -30 20 -23 0 -30 -4 -30 -20z"/>
<path d="M4007 7943 c-2 -5 -3 -19 -2 -33 2 -14 4 -29 4 -35 1 -5 17 -11 36
-12 l35 -3 0 44 c0 36 -3 44 -17 42 -10 -2 -19 -9 -19 -17 -1 -8 -2 -22 -3
-31 0 -10 -5 -18 -10 -18 -6 0 -8 9 -6 20 2 11 -2 20 -8 20 -8 0 -8 3 2 9 8 5
9 11 3 15 -6 3 -13 3 -15 -1z"/>
<path d="M4140 7935 c0 -9 9 -15 23 -14 20 1 20 2 2 7 l-20 5 20 8 c19 7 19 8
-2 8 -14 1 -23 -5 -23 -14z"/>
<path d="M3595 7892 c0 -25 3 -27 45 -29 41 -1 42 0 10 6 -26 4 -36 12 -38 29
-5 31 -17 28 -17 -6z"/>
<path d="M3630 7900 c-10 -18 -8 -20 19 -20 24 0 29 3 24 17 -4 11 -8 12 -11
5 -2 -7 -8 -12 -14 -12 -6 0 -8 7 -4 15 8 22 -1 18 -14 -5z"/>
<path d="M3743 7913 c9 -2 23 -2 30 0 6 3 -1 5 -18 5 -16 0 -22 -2 -12 -5z"/>
<path d="M4107 7896 c7 -33 25 -38 57 -16 22 14 24 19 12 23 -22 8 -52 -3 -36
-13 9 -5 9 -10 1 -14 -6 -4 -13 4 -17 19 -8 32 -23 33 -17 1z"/>
<path d="M3597 7833 c9 -3 10 -10 3 -23 -7 -13 -6 -20 3 -23 9 -3 8 -8 -3 -23
-14 -18 -14 -18 8 1 16 13 21 26 17 42 -3 13 -1 23 5 23 5 0 10 -15 10 -34 0
-38 15 -55 33 -37 9 9 8 11 -5 6 -13 -5 -18 -2 -18 8 0 9 8 21 18 27 16 11 16
11 0 6 -11 -3 -18 0 -18 9 0 7 8 16 18 18 9 3 -5 5 -33 5 -27 0 -44 -2 -38 -5z"/>
<path d="M3697 7833 c-7 -11 4 -73 12 -73 4 0 7 11 7 25 0 14 -5 25 -10 25 -6
0 -5 4 3 9 8 5 9 11 3 15 -6 3 -13 3 -15 -1z"/>
<path d="M3732 7798 c1 -26 5 -45 8 -43 4 3 5 16 2 30 -3 19 0 25 13 25 13 0
16 -6 13 -25 -3 -14 -2 -27 2 -30 4 -2 7 15 6 39 0 28 -5 43 -13 43 -7 0 -13
-5 -13 -11 0 -6 -5 -4 -10 4 -8 11 -10 2 -8 -32z"/>
<path d="M3795 7830 c-3 -5 1 -10 9 -10 8 0 18 5 21 10 3 6 -1 10 -9 10 -8 0
-18 -4 -21 -10z"/>
<path d="M3835 7820 c-4 -11 -16 -21 -28 -21 -14 -1 -9 -4 13 -9 32 -7 33 -7
7 -9 -16 0 -26 -5 -23 -10 3 -5 16 -7 28 -3 14 3 19 2 14 -6 -10 -17 3 -15 20
3 12 12 12 15 2 15 -10 0 -9 3 2 10 12 8 11 10 -7 10 -23 0 -31 14 -14 24 5 4
11 1 13 -6 3 -8 7 -6 11 5 5 12 1 17 -13 17 -10 0 -22 -9 -25 -20z"/>
<path d="M3938 7831 c14 -9 13 -32 -3 -43 -5 -4 0 -8 12 -8 12 0 24 -8 26 -17
4 -14 5 -12 6 5 0 12 -3 22 -9 22 -14 0 -12 37 3 43 6 3 -1 6 -18 6 -19 0 -25
-2 -17 -8z"/>
<path d="M4002 7797 c-1 -35 2 -43 16 -42 24 1 40 13 52 36 9 16 7 19 -9 19
-14 0 -18 -5 -14 -20 4 -13 0 -20 -10 -20 -11 0 -14 8 -10 35 3 26 1 35 -10
35 -10 0 -15 -12 -15 -43z"/>
<path d="M4048 7833 c6 -2 18 -2 25 0 6 3 1 5 -13 5 -14 0 -19 -2 -12 -5z"/>
<path d="M4107 7827 c-3 -7 -2 -29 3 -48 l8 -34 1 30 c1 23 6 31 21 32 22 2
27 -12 8 -20 -10 -4 -10 -6 0 -6 18 -1 15 -19 -5 -24 -10 -3 -2 -5 17 -6 22 0
30 2 22 8 -7 4 -12 12 -11 17 1 5 1 22 0 37 -1 24 -4 26 -19 18 -13 -7 -22 -7
-29 0 -7 7 -12 6 -16 -4z"/>
<path d="M4258 7833 c21 -4 24 -9 20 -44 -2 -21 0 -39 4 -39 5 0 8 20 8 45 0
43 -1 45 -27 44 -25 -2 -26 -2 -5 -6z"/>
<path d="M4309 7797 l-4 -42 50 -3 c27 -2 47 0 43 3 -3 3 -20 7 -38 7 -20 1
-27 4 -18 9 9 6 8 9 -7 10 -11 0 -14 3 -7 6 7 3 19 -1 27 -7 18 -15 18 -10 5
24 -7 20 -6 24 5 19 8 -3 12 -9 9 -14 -3 -5 0 -17 5 -26 9 -15 11 -11 9 20 -2
36 -3 37 -39 37 -36 0 -37 -1 -40 -43z m31 18 c11 -13 10 -14 -4 -9 -9 3 -16
10 -16 15 0 13 6 11 20 -6z"/>
<path d="M4230 7789 c0 -14 5 -19 17 -17 26 5 29 38 4 38 -15 0 -21 -6 -21
-21z m30 1 c0 -5 -4 -10 -10 -10 -5 0 -10 5 -10 10 0 6 5 10 10 10 6 0 10 -4
10 -10z"/>
<path d="M3903 7775 c-3 -9 -3 -18 -1 -21 3 -3 8 4 11 16 6 23 -1 27 -10 5z"/>
<path d="M3660 7691 c0 -22 -5 -42 -12 -44 -8 -3 -6 -6 5 -6 14 -1 17 8 17 44
0 25 -2 45 -5 45 -3 0 -5 -18 -5 -39z"/>
<path d="M3702 7721 c-10 -6 -7 -16 15 -42 20 -25 21 -29 5 -15 -12 11 -22 14
-22 8 0 -10 30 -32 44 -32 3 0 6 8 7 18 0 10 3 12 6 5 9 -24 20 -13 15 16 -3
25 -8 28 -33 25 -19 -2 -28 0 -23 7 3 6 12 8 20 5 8 -3 14 -1 14 4 0 12 -30
13 -48 1z"/>
<path d="M3800 7718 c0 -9 5 -18 12 -20 8 -3 6 -12 -5 -29 l-17 -25 44 0 c33
1 42 4 34 13 -5 7 -7 17 -3 23 3 6 -4 11 -17 11 -19 1 -18 2 6 8 28 6 28 7 11
21 -11 9 -16 10 -11 3 4 -7 2 -13 -3 -13 -6 0 -11 6 -11 13 0 8 -4 7 -10 -3
-9 -13 -11 -13 -20 0 -8 13 -10 13 -10 -2z m39 -55 c-6 -7 -15 -13 -20 -13 -5
0 -6 6 -3 13 3 8 11 14 19 14 11 0 12 -4 4 -14z"/>
<path d="M3914 7719 c-10 -4 -13 -8 -5 -8 9 -1 10 -5 3 -13 -5 -7 -6 -22 -2
-33 6 -17 8 -15 16 15 l8 35 7 -40 6 -40 2 37 c1 26 6 38 19 40 12 3 10 5 -9
9 -14 3 -34 2 -45 -2z"/>
<path d="M4020 7720 c21 -7 22 -8 5 -9 -14 -1 -21 -8 -21 -21 0 -25 11 -26 26
-2 10 15 11 15 6 0 -6 -19 18 -42 36 -35 8 4 7 6 -4 6 -13 1 -18 9 -18 32 0
24 4 30 15 25 8 -3 15 -2 15 3 0 5 -19 9 -42 9 -35 -1 -39 -2 -18 -8z"/>
<path d="M4106 7721 c-3 -5 1 -11 9 -15 8 -3 15 -1 15 4 0 13 -18 22 -24 11z"/>
<path d="M4151 7703 c1 -23 2 -24 6 -5 2 12 9 22 14 22 13 0 11 -54 -3 -68 -9
-9 -9 -12 0 -12 13 0 25 40 20 67 -2 10 -11 19 -21 21 -13 3 -17 -3 -16 -25z"/>
<path d="M4215 7707 c3 -16 2 -26 -2 -24 -4 3 -8 -5 -8 -16 0 -16 6 -22 23
-22 15 0 22 6 22 20 0 17 -2 17 -10 5 -8 -12 -10 -10 -10 10 0 14 -5 32 -11
40 -8 11 -9 8 -4 -13z"/>
<path d="M4246 7714 c-9 -23 -8 -24 19 -24 25 0 33 14 15 25 -5 3 -10 1 -10
-4 0 -6 -4 -11 -10 -11 -5 0 -7 7 -4 15 4 8 4 15 1 15 -3 0 -8 -7 -11 -16z"/>
<path d="M4322 7713 c-5 -10 -6 -31 -2 -48 6 -27 7 -25 11 18 5 52 4 55 -9 30z"/>
<path d="M4349 7710 c-8 -44 1 -70 25 -69 17 1 17 2 4 6 -10 2 -18 12 -18 20
0 9 8 26 18 37 14 18 15 19 0 8 -14 -11 -17 -10 -20 5 -4 14 -6 12 -9 -7z"/>
<path d="M3600 7716 c0 -2 7 -6 15 -10 8 -3 15 -1 15 4 0 6 -7 10 -15 10 -8 0
-15 -2 -15 -4z"/>
<path d="M3605 7690 c4 -6 1 -19 -7 -28 -11 -15 -11 -15 3 -5 9 7 19 9 24 5 4
-4 2 3 -4 16 -6 12 -14 22 -17 22 -3 0 -2 -5 1 -10z"/>
<path d="M3967 7670 c-3 -11 -1 -20 4 -20 5 0 9 9 9 20 0 11 -2 20 -4 20 -2 0
-6 -9 -9 -20z"/>
<path d="M4107 7683 c-3 -5 -1 -17 4 -28 6 -17 8 -17 8 -2 1 9 5 17 11 17 5 0
7 -8 4 -17 -5 -14 -4 -15 4 -4 6 8 8 20 5 28 -6 14 -29 18 -36 6z"/>
<path d="M4282 7660 c0 -14 2 -19 5 -12 2 6 2 18 0 25 -3 6 -5 1 -5 -13z"/>
<path d="M4427 7173 c-11 -10 -8 -25 3 -18 6 3 10 1 10 -4 0 -17 27 -13 34 5
5 14 4 15 -9 4 -12 -10 -15 -10 -15 4 0 16 -12 21 -23 9z"/>
<path d="M4515 7144 c3 -36 14 -59 17 -33 5 52 4 69 -7 69 -7 0 -11 -13 -10
-36z"/>
<path d="M4564 7169 c-20 -25 -24 -49 -9 -49 7 0 16 -8 18 -17 4 -17 5 -17 6
0 0 9 6 17 11 17 6 0 10 10 9 23 0 21 -1 21 -9 2 -7 -18 -8 -17 -11 9 -3 24
-6 27 -15 15z m3 -31 c-3 -8 -6 -5 -6 6 -1 11 2 17 5 13 3 -3 4 -12 1 -19z"/>
<path d="M4629 7163 c-10 -11 -10 -14 -1 -9 6 4 12 2 12 -3 0 -17 27 -13 34 5
6 15 4 15 -11 3 -15 -12 -16 -12 -10 4 8 22 -6 22 -24 0z"/>
<path d="M4722 7152 c-6 -18 -7 -30 -2 -27 5 3 10 -5 12 -17 4 -22 4 -22 9 2
3 14 2 36 -1 50 -6 25 -6 25 -18 -8z"/>
<path d="M4765 7155 c1 -16 -1 -32 -5 -35 -4 -3 -2 -10 4 -16 9 -8 15 -7 24 3
8 8 9 13 2 13 -5 0 -10 9 -10 20 0 11 5 20 11 20 5 0 7 5 3 11 -5 8 -9 8 -14
-1 -6 -9 -9 -9 -13 1 -3 8 -4 1 -2 -16z"/>
<path d="M4827 7173 c-4 -3 -7 -23 -7 -44 0 -31 3 -37 16 -32 12 4 13 7 3 14
-8 4 -11 9 -9 11 3 2 15 12 27 22 19 15 25 16 38 6 10 -8 15 -9 15 -2 0 17
-37 34 -45 22 -5 -8 -11 -8 -19 -1 -7 6 -16 8 -19 4z"/>
<path d="M4977 7173 c-3 -5 -1 -26 3 -48 8 -44 11 -44 14 -2 2 15 -2 27 -8 27
-6 0 -5 4 3 9 8 5 9 11 3 15 -6 3 -13 3 -15 -1z"/>
<path d="M5012 7138 c1 -26 5 -45 8 -43 4 3 5 16 2 30 -3 19 0 25 13 25 13 0
16 -6 13 -25 -3 -14 -2 -27 2 -30 4 -2 7 15 6 39 0 28 -5 43 -13 43 -7 0 -13
-5 -13 -11 0 -6 -5 -4 -10 4 -8 11 -10 2 -8 -32z"/>
<path d="M4925 7159 c-3 -4 2 -6 10 -5 21 3 28 13 10 13 -9 0 -18 -4 -20 -8z"/>
<path d="M4422 7129 c16 -11 49 -11 65 -1 6 4 -9 7 -34 8 -27 1 -39 -2 -31 -7z"/>
<path d="M4628 7113 c3 -17 11 -23 32 -23 21 0 29 6 32 23 4 20 0 22 -32 22
-32 0 -36 -2 -32 -22z m52 -3 c0 -5 -9 -10 -20 -10 -11 0 -20 5 -20 10 0 6 9
10 20 10 11 0 20 -4 20 -10z"/>
<path d="M4430 7100 c0 -6 7 -10 15 -10 8 0 15 2 15 4 0 2 -7 6 -15 10 -8 3
-15 1 -15 -4z"/>
<path d="M4885 7100 c-3 -5 -1 -10 4 -10 6 0 11 5 11 10 0 6 -2 10 -4 10 -3 0
-8 -4 -11 -10z"/>
<path d="M4434 7057 c-8 -9 -7 -16 3 -25 11 -11 13 -8 13 13 0 28 -1 29 -16
12z"/>
<path d="M4460 7044 c0 -15 3 -23 8 -18 4 5 10 11 13 14 4 3 1 11 -7 18 -12
11 -14 8 -14 -14z"/>
<path d="M4527 7054 c3 -10 2 -15 -3 -12 -5 4 -9 -7 -9 -22 0 -22 3 -26 13
-18 14 12 16 54 2 63 -6 4 -7 -1 -3 -11z"/>
<path d="M4549 7043 c0 -16 -2 -36 -4 -46 -2 -9 1 -15 6 -11 5 3 6 11 2 17 -3
7 3 4 14 -5 22 -20 33 -23 33 -7 0 5 -5 7 -10 4 -7 -4 -8 8 -4 34 6 37 5 41
-15 41 -16 0 -21 -6 -22 -27z m27 -2 c0 -11 -4 -17 -8 -15 -4 3 -8 12 -8 20 0
8 4 14 8 14 4 0 8 -9 8 -19z"/>
<path d="M4616 7055 c-3 -8 -1 -17 5 -20 5 -4 7 -11 4 -16 -4 -5 -1 -9 4 -9 6
0 11 7 11 15 0 8 -6 15 -12 15 -10 0 -9 3 1 9 8 5 9 11 3 15 -5 3 -12 -1 -16
-9z"/>
<path d="M4653 7037 c-1 -17 -7 -34 -14 -37 -7 -5 -6 -9 5 -13 8 -3 18 -2 22
4 4 7 10 7 18 0 9 -8 13 1 14 37 2 34 0 43 -8 32 -5 -8 -10 -10 -10 -4 0 25
-25 8 -27 -19z m36 -19 c0 -22 -1 -22 -9 -3 -7 16 -9 17 -9 3 -1 -9 -5 -19
-10 -22 -4 -3 -6 6 -3 19 6 31 32 33 31 3z"/>
<path d="M4726 7029 c3 -47 13 -65 15 -28 1 13 1 27 0 32 0 4 4 7 9 7 6 0 10
-6 9 -12 -4 -35 2 -46 21 -41 16 4 20 14 20 44 0 27 -4 39 -14 39 -8 0 -18 -4
-21 -10 -3 -5 -11 -10 -16 -10 -6 0 -7 5 -4 10 3 6 0 10 -8 10 -10 0 -13 -11
-11 -41z m64 1 c0 -16 -4 -30 -10 -30 -5 0 -10 14 -10 30 0 17 5 30 10 30 6 0
10 -13 10 -30z"/>
<path d="M4836 7062 c-3 -5 8 -6 25 -4 16 2 29 6 29 8 0 8 -49 4 -54 -4z"/>
<path d="M4960 7042 c0 -16 8 -36 18 -45 21 -20 32 -22 32 -6 0 5 -5 7 -10 4
-7 -4 -8 8 -4 34 6 37 5 41 -15 41 -16 0 -21 -6 -21 -28z m27 -2 c-1 -11 -5
-20 -9 -20 -4 0 -8 9 -8 20 0 11 4 20 9 20 6 0 9 -9 8 -20z"/>
<path d="M5027 7058 c-5 -18 3 -48 14 -48 5 0 9 7 9 15 0 8 -6 15 -12 15 -10
0 -9 3 1 9 8 5 9 11 3 15 -6 3 -12 0 -15 -6z"/>
<path d="M5062 7036 c-2 -17 -7 -33 -13 -37 -7 -4 -5 -8 5 -12 8 -3 18 -2 22
4 4 7 10 7 18 0 9 -8 13 1 14 37 2 34 0 43 -8 32 -5 -8 -10 -10 -10 -4 0 26
-26 8 -28 -20z m37 -18 c0 -22 -1 -22 -9 -3 -7 16 -9 17 -9 3 -1 -9 -5 -19
-10 -22 -4 -3 -6 6 -3 19 6 31 32 33 31 3z"/>
<path d="M4941 7052 c0 -7 -4 -11 -8 -9 -5 3 -8 -8 -8 -23 0 -22 3 -26 13 -18
11 10 16 4 13 -15 -1 -5 3 -6 9 -2 7 4 8 11 1 18 -5 7 -11 23 -14 37 -2 14 -5
19 -6 12z"/>
<path d="M4861 7023 c0 -17 -7 -34 -13 -36 -10 -4 -10 -6 0 -6 16 -1 25 21 19
51 -3 18 -5 16 -6 -9z"/>
<path d="M4826 7003 c-6 -14 -5 -15 5 -6 7 7 10 15 7 18 -3 3 -9 -2 -12 -12z"/>
<path d="M4886 7007 c3 -10 9 -15 12 -12 3 3 0 11 -7 18 -10 9 -11 8 -5 -6z"/>
<path d="M4433 7000 c4 -18 47 -27 47 -10 0 6 5 8 12 4 7 -4 8 -3 4 4 -5 9
-12 8 -27 -1 -16 -10 -22 -9 -30 3 -9 13 -10 13 -6 0z"/>
<path d="M4430 6950 c-1 -8 -2 -19 -1 -24 1 -5 -4 -13 -11 -17 -10 -7 -10 -9
1 -9 11 0 11 -3 0 -17 -13 -17 -13 -17 7 0 11 9 24 17 29 17 5 0 18 -8 29 -17
20 -17 20 -17 7 0 -11 14 -11 17 0 17 12 0 12 2 0 9 -7 5 -11 13 -8 18 3 5 2
15 -4 23 -6 10 -9 11 -9 3 0 -7 -6 -13 -14 -13 -8 0 -17 6 -19 13 -4 8 -6 8
-7 -3z m40 -30 c0 -5 -7 -10 -15 -10 -8 0 -15 5 -15 10 0 6 7 10 15 10 8 0 15
-4 15 -10z"/>
<path d="M4532 6948 c-21 -21 -14 -41 13 -36 13 3 22 1 19 -3 -3 -5 -17 -10
-32 -10 -24 -2 -24 -2 -4 -6 12 -2 20 -9 17 -14 -4 -5 -1 -9 4 -9 6 0 11 5 11
10 0 6 10 10 23 10 13 0 17 3 11 8 -6 4 -10 15 -8 25 1 9 -6 22 -16 27 -23 13
-24 12 -38 -2z"/>
<path d="M4617 6948 c-5 -18 3 -48 14 -48 5 0 9 7 9 15 0 8 -6 15 -12 15 -10
0 -9 3 1 9 8 5 9 11 3 15 -6 3 -12 0 -15 -6z"/>
<path d="M4653 6927 c-1 -17 -7 -34 -14 -37 -7 -5 -6 -9 5 -13 8 -3 18 -2 22
4 4 7 10 7 18 0 9 -8 13 1 14 37 2 34 0 43 -8 32 -5 -8 -10 -10 -10 -4 0 25
-25 8 -27 -19z m9 -39 c-6 -6 -7 0 -4 19 5 21 7 23 10 9 2 -10 0 -22 -6 -28z
m25 10 c-3 -7 -5 -2 -5 12 0 14 2 19 5 13 2 -7 2 -19 0 -25z"/>
<path d="M4725 6938 c3 -12 -1 -28 -8 -37 -9 -12 -9 -13 1 -7 8 5 12 1 12 -10
0 -32 10 -8 14 34 3 30 0 42 -10 42 -8 0 -11 -8 -9 -22z"/>
<path d="M4765 6948 c-5 -17 -8 -39 -6 -60 1 -11 7 -15 21 -11 16 4 20 14 20
44 0 28 -4 39 -15 39 -9 0 -18 -6 -20 -12z m25 -28 c0 -16 -4 -30 -10 -30 -5
0 -10 14 -10 30 0 17 5 30 10 30 6 0 10 -13 10 -30z"/>
<path d="M4823 6943 c0 -7 4 -13 8 -13 4 0 9 6 12 13 3 8 0 14 -7 14 -7 0 -13
-6 -13 -14z"/>
<path d="M4844 6928 c-16 -17 -23 -28 -16 -24 7 4 12 1 12 -8 0 -8 -6 -16 -12
-19 -7 -2 2 -4 20 -5 23 0 32 4 32 16 0 14 2 14 13 -2 11 -15 12 -12 9 23 -5
51 -23 57 -58 19z m22 -46 c-12 -11 -17 7 -9 34 l8 29 3 -28 c2 -16 1 -31 -2
-35z m21 36 c-3 -8 -6 -5 -6 6 -1 11 2 17 5 13 3 -3 4 -12 1 -19z"/>
<path d="M4960 6939 c0 -11 -7 -19 -15 -19 -10 0 -15 -9 -14 -27 2 -24 2 -25
6 -5 3 15 11 22 28 22 17 0 25 -7 28 -22 4 -20 4 -19 6 5 1 18 -4 27 -14 27
-24 0 -17 18 8 22 20 3 20 4 -5 9 -23 5 -28 3 -28 -12z"/>
<path d="M5026 6945 c-3 -8 -1 -17 5 -20 5 -4 7 -11 4 -16 -4 -5 -1 -9 4 -9 6
0 11 7 11 15 0 8 -6 15 -12 15 -10 0 -9 3 1 9 8 5 9 11 3 15 -5 3 -12 -1 -16
-9z"/>
<path d="M5063 6927 c-1 -17 -7 -34 -14 -37 -7 -5 -6 -9 5 -13 8 -3 18 -2 22
4 4 7 10 7 18 0 9 -8 13 1 14 37 2 34 0 43 -8 32 -5 -8 -10 -10 -10 -4 0 25
-25 8 -27 -19z m36 -19 c0 -22 -1 -22 -9 -3 -7 16 -9 17 -9 3 -1 -9 -5 -19
-10 -22 -4 -3 -6 6 -3 19 6 31 32 33 31 3z"/>
<path d="M4421 6823 c-10 -26 -10 -27 4 -9 8 11 15 23 15 28 0 15 -7 8 -19
-19z"/>
<path d="M4532 6843 c12 -3 18 -17 21 -46 l4 -42 1 42 c2 35 6 42 25 46 12 2
2 4 -23 4 -25 1 -37 -1 -28 -4z"/>
<path d="M4616 6835 c-3 -8 -1 -17 5 -20 5 -4 7 -11 4 -16 -4 -5 -1 -9 4 -9 6
0 11 7 11 15 0 8 -6 15 -12 15 -10 0 -9 3 1 9 8 5 9 11 3 15 -5 3 -12 -1 -16
-9z"/>
<path d="M4653 6817 c-1 -17 -7 -34 -14 -37 -7 -5 -6 -9 5 -13 8 -3 18 -2 22
4 4 7 10 7 18 0 9 -8 13 1 14 37 2 34 0 43 -8 32 -5 -8 -10 -10 -10 -4 0 25
-25 8 -27 -19z m36 -19 c0 -22 -1 -22 -9 -3 -7 16 -9 17 -9 3 -1 -9 -5 -19
-10 -22 -4 -3 -6 6 -3 19 6 31 32 33 31 3z"/>
<path d="M4726 6809 c3 -44 13 -66 15 -33 1 10 2 31 3 47 2 16 -2 27 -9 27 -8
0 -11 -14 -9 -41z"/>
<path d="M4765 6838 c-5 -17 -8 -39 -6 -60 1 -11 7 -15 21 -11 16 4 20 14 20
44 0 28 -4 39 -15 39 -9 0 -18 -6 -20 -12z m25 -28 c0 -16 -4 -30 -10 -30 -5
0 -10 14 -10 30 0 17 5 30 10 30 6 0 10 -13 10 -30z"/>
<path d="M4835 6840 c-19 -8 -19 -9 3 -9 12 -1 22 4 22 9 0 6 -1 10 -2 9 -2 0
-12 -4 -23 -9z"/>
<path d="M4870 6802 c0 -26 4 -42 8 -36 4 6 14 14 22 17 12 4 11 6 -2 6 -20 1
-25 37 -6 43 7 3 6 7 -5 11 -15 5 -17 0 -17 -41z"/>
<path d="M4931 6823 c-10 -26 -10 -27 4 -9 8 11 15 23 15 28 0 15 -7 8 -19
-19z"/>
<path d="M5043 6843 c13 -3 17 -15 17 -45 0 -23 3 -38 7 -35 3 4 6 22 5 41 -1
28 3 35 21 39 12 2 2 4 -23 4 -25 1 -37 -1 -27 -4z"/>
<path d="M5134 6812 c3 -20 5 -40 6 -44 0 -8 21 -5 37 5 6 4 14 3 18 -3 14
-22 20 -8 16 36 -2 32 -6 42 -12 33 -7 -11 -9 -11 -9 -1 0 7 -4 10 -10 7 -15
-9 -12 -25 5 -25 9 0 15 -9 14 -22 0 -21 -1 -22 -8 -4 -7 19 -8 19 -14 -3 -3
-14 -10 -20 -17 -16 -6 4 -9 9 -6 12 3 3 1 14 -4 24 -7 12 -6 19 2 21 7 3 5 7
-6 11 -15 6 -17 2 -12 -31z"/>
<path d="M4470 6831 c0 -5 7 -15 17 -22 15 -13 15 -12 4 9 -12 23 -21 28 -21
13z"/>
<path d="M4980 6833 c0 -6 8 -17 18 -24 16 -13 16 -13 2 6 -8 11 -16 22 -17
24 -2 2 -3 0 -3 -6z"/>
<path d="M4436 6795 c-18 -27 -20 -35 -8 -35 4 0 13 14 19 30 14 36 11 38 -11
5z"/>
<path d="M4840 6810 c0 -5 5 -10 11 -10 5 0 7 5 4 10 -3 6 -8 10 -11 10 -2 0
-4 -4 -4 -10z"/>
<path d="M4946 6795 c-18 -27 -20 -35 -8 -35 4 0 13 14 19 30 14 36 11 38 -11
5z"/>
<path d="M4466 6781 c-3 -5 1 -11 9 -15 8 -3 15 -1 15 4 0 13 -18 22 -24 11z"/>
<path d="M4820 6786 c0 -2 9 -6 20 -9 11 -3 18 -1 14 4 -5 9 -34 13 -34 5z"/>
<path d="M4976 6781 c-3 -5 1 -11 9 -15 8 -3 15 -1 15 4 0 13 -18 22 -24 11z"/>
<path d="M4443 6733 c35 -4 37 -6 37 -38 0 -18 -5 -36 -10 -38 -6 -3 -5 -4 2
-3 7 1 16 21 19 44 l5 42 -45 -2 c-44 -1 -44 -2 -8 -5z"/>
<path d="M4520 6734 c0 -4 8 -13 18 -21 16 -14 16 -14 0 -9 -12 3 -18 0 -18
-9 0 -8 7 -15 15 -15 23 0 18 -18 -7 -23 -13 -2 0 -4 27 -4 28 0 40 2 28 4
-26 5 -31 23 -8 23 8 0 15 7 15 15 0 9 -6 12 -17 8 -11 -4 -14 -3 -9 5 4 7 14
12 22 12 8 0 12 5 9 10 -7 11 -75 14 -75 4z"/>
<path d="M4646 6726 c4 -11 -2 -29 -15 -49 l-22 -32 24 27 25 27 17 -25 c9
-14 19 -24 21 -21 3 3 -7 22 -21 43 -32 47 -38 53 -29 30z"/>
<path d="M4723 6704 c5 -38 25 -60 41 -44 5 5 17 5 30 -1 19 -9 20 -9 4 4 -10
8 -18 20 -19 28 0 8 -4 4 -10 -9 -5 -13 -13 -21 -18 -18 -13 9 -19 55 -8 59 6
2 3 6 -7 10 -15 6 -17 2 -13 -29z"/>
<path d="M4767 6734 c-12 -12 -8 -24 7 -24 8 0 17 -8 19 -17 3 -10 5 -2 6 17
0 23 -2 30 -8 21 -6 -9 -10 -10 -12 -2 -3 7 -8 9 -12 5z"/>
<path d="M4838 6733 c15 -3 22 -11 21 -26 -1 -17 -2 -18 -6 -4 -6 23 -29 22
-29 -2 0 -11 3 -18 7 -15 4 2 15 -3 23 -12 9 -8 24 -13 34 -11 16 4 16 5 0 6
-13 1 -18 10 -18 32 0 24 4 30 15 25 8 -3 15 -2 15 3 0 5 -19 8 -42 8 -24 0
-33 -2 -20 -4z"/>
<path d="M4935 6730 c-14 -6 -15 -9 -5 -9 22 -1 23 -41 2 -42 -14 0 -14 -2 -2
-6 8 -3 18 -11 22 -17 4 -6 8 10 8 37 0 26 -1 47 -2 46 -2 0 -12 -4 -23 -9z"/>
<path d="M4970 6692 c0 -26 4 -42 8 -36 4 6 14 14 22 17 12 4 11 6 -2 6 -11 1
-18 9 -18 20 0 11 8 21 18 23 14 3 13 5 -5 10 -22 6 -23 3 -23 -40z"/>
<path d="M5058 6733 c29 -4 32 -7 32 -38 0 -18 -6 -36 -12 -38 -8 -4 -7 -6 3
-6 13 -1 18 10 21 44 l3 45 -40 -2 c-37 -1 -37 -2 -7 -5z"/>
<path d="M5135 6731 c-3 -6 1 -11 9 -11 9 0 16 -4 16 -10 0 -5 -6 -7 -13 -4
-8 3 -14 -2 -14 -11 0 -8 6 -15 14 -15 19 0 16 -18 -4 -23 -10 -3 2 -5 27 -5
25 0 37 2 28 5 -22 6 -24 23 -3 23 11 0 15 8 12 28 -3 22 -9 28 -34 30 -17 2
-34 -2 -38 -7z"/>
<path d="M5259 6726 c8 -10 6 -19 -10 -40 -11 -14 -16 -26 -10 -26 6 0 15 9
21 20 11 20 11 19 36 -7 l25 -28 -26 39 c-14 21 -25 43 -25 47 0 5 -5 9 -11 9
-8 0 -8 -4 0 -14z"/>
<path d="M5337 6733 c-2 -5 -3 -19 -2 -33 2 -14 4 -30 4 -36 1 -6 11 -11 24
-10 18 1 22 7 20 29 -1 17 3 27 12 27 7 0 15 6 18 13 3 8 -1 14 -9 14 -8 0
-14 -5 -14 -11 0 -6 -5 -4 -11 4 -8 11 -9 4 -6 -28 4 -30 2 -42 -6 -39 -7 2
-11 14 -11 25 1 12 -4 22 -10 22 -6 0 -5 4 3 9 8 5 9 11 3 15 -6 3 -13 3 -15
-1z"/>
<path d="M5037 6713 c-4 -3 -7 -15 -7 -26 0 -25 13 -14 15 13 2 22 1 23 -8 13z"/>
<path d="M4422 6690 c0 -14 2 -19 5 -12 2 6 2 18 0 25 -3 6 -5 1 -5 -13z"/>
<path d="M4451 6694 c0 -11 3 -14 6 -6 3 7 2 16 -1 19 -3 4 -6 -2 -5 -13z"/>
<path d="M4443 6623 c35 -4 37 -6 37 -38 0 -18 -5 -36 -10 -38 -6 -3 -5 -4 2
-3 7 1 16 21 19 44 l5 42 -45 -2 c-44 -1 -44 -2 -8 -5z"/>
<path d="M4550 6603 c0 -20 -4 -24 -20 -20 -11 3 -18 1 -14 -4 3 -5 11 -9 19
-9 7 0 16 -8 18 -17 4 -16 5 -16 6 -1 0 9 11 19 24 21 l22 4 -22 2 c-27 1 -31
28 -5 33 14 3 13 5 -5 10 -20 5 -23 2 -23 -19z"/>
<path d="M4636 6612 c-4 -11 -2 -30 3 -43 5 -13 10 -17 11 -9 0 13 1 13 10 0
8 -13 10 -12 10 3 0 9 -4 17 -9 17 -6 0 -8 9 -6 20 5 26 -12 36 -19 12z"/>
<path d="M4678 6623 c7 -3 16 -2 19 1 4 3 -2 6 -13 5 -11 0 -14 -3 -6 -6z"/>
<path d="M4724 6592 c3 -20 5 -40 6 -44 0 -3 8 -5 18 -3 9 2 26 4 37 5 11 1
14 4 8 7 -7 2 -13 12 -14 21 0 12 -3 10 -10 -6 -5 -13 -13 -21 -18 -18 -13 9
-19 55 -8 59 6 2 3 6 -7 10 -15 6 -17 2 -12 -31z"/>
<path d="M4767 6624 c-12 -12 -8 -24 7 -24 8 0 17 -8 19 -17 3 -10 5 -2 6 17
0 23 -2 30 -8 21 -6 -9 -10 -10 -12 -2 -3 7 -8 9 -12 5z"/>
<path d="M4825 6600 c0 -25 4 -30 25 -29 14 0 19 3 13 6 -7 2 -13 9 -13 14 0
6 5 7 10 4 6 -3 10 -1 10 4 0 6 -8 11 -17 11 -15 0 -16 2 -3 10 12 8 11 10 -5
10 -17 0 -21 -6 -20 -30z"/>
<path d="M4878 6623 c7 -3 16 -2 19 1 4 3 -2 6 -13 5 -11 0 -14 -3 -6 -6z"/>
<path d="M4940 6621 l24 -7 -22 -22 c-12 -12 -18 -22 -13 -22 6 0 13 6 18 13
5 8 10 2 14 -18 6 -27 7 -26 8 12 1 35 5 42 24 46 12 2 0 4 -28 5 -35 0 -43
-2 -25 -7z"/>
<path d="M5058 6623 c29 -4 32 -7 32 -38 0 -18 -6 -36 -12 -38 -8 -4 -7 -6 3
-6 13 -1 18 10 21 44 l3 45 -40 -2 c-37 -1 -37 -2 -7 -5z"/>
<path d="M5230 6590 c0 -32 4 -38 25 -42 16 -4 22 -1 17 6 -4 6 -7 24 -7 40 0
20 -5 30 -17 32 -15 2 -18 -5 -18 -36z"/>
<path d="M5278 6600 c-3 -17 -1 -33 4 -36 4 -3 9 3 9 13 1 10 4 5 8 -12 l7
-30 5 33 c4 22 2 32 -8 32 -17 0 -17 17 0 23 7 4 6 6 -4 6 -11 1 -18 -9 -21
-29z"/>
<path d="M5337 6623 c-2 -5 -3 -19 -2 -33 2 -14 4 -30 4 -36 2 -21 44 -10 52
14 6 15 5 21 -1 17 -6 -3 -10 -1 -10 4 0 6 6 11 14 11 8 0 16 6 19 13 3 8 -1
14 -9 14 -8 0 -14 -5 -14 -11 0 -6 -5 -4 -11 4 -8 11 -9 4 -7 -28 2 -26 0 -41
-7 -39 -5 2 -9 14 -9 25 1 12 -4 22 -10 22 -6 0 -5 4 3 9 8 5 9 11 3 15 -6 3
-13 3 -15 -1z"/>
<path d="M4515 6610 c-3 -5 -2 -10 4 -10 5 0 13 5 16 10 3 6 2 10 -4 10 -5 0
-13 -4 -16 -10z"/>
<path d="M4610 6587 c0 -20 4 -37 9 -37 5 0 7 15 4 33 -7 45 -13 47 -13 4z"/>
<path d="M5130 6595 c0 -22 4 -25 40 -25 35 0 40 3 39 23 -1 15 -3 17 -6 5 -3
-11 -14 -16 -34 -16 -25 1 -30 5 -26 20 3 10 1 18 -4 18 -5 0 -9 -11 -9 -25z"/>
<path d="M5160 6610 c0 -5 4 -10 9 -10 6 0 13 5 16 10 3 6 -1 10 -9 10 -9 0
-16 -4 -16 -10z"/>
<path d="M4422 6580 c0 -14 2 -19 5 -12 2 6 2 18 0 25 -3 6 -5 1 -5 -13z"/>
<path d="M4451 6584 c0 -11 3 -14 6 -6 3 7 2 16 -1 19 -3 4 -6 -2 -5 -13z"/>
<path d="M4678 6593 c7 -3 16 -2 19 1 4 3 -2 6 -13 5 -11 0 -14 -3 -6 -6z"/>
<path d="M4980 6596 c0 -2 8 -10 18 -17 15 -13 16 -12 3 4 -13 16 -21 21 -21
13z"/>
<path d="M5030 6579 c0 -11 4 -18 10 -14 5 3 7 12 3 20 -7 21 -13 19 -13 -6z"/>
<path d="M4868 6553 c6 -2 18 -2 25 0 6 3 1 5 -13 5 -14 0 -19 -2 -12 -5z"/>
<path d="M4432 6512 c-7 -2 -12 -21 -11 -45 1 -23 3 -34 6 -24 3 10 14 17 28
17 14 0 25 -7 28 -17 3 -10 5 1 6 23 1 36 -2 42 -22 46 -12 2 -28 3 -35 0z
m41 -19 c-7 -2 -21 -2 -30 0 -10 3 -4 5 12 5 17 0 24 -2 18 -5z m0 -20 c-7 -2
-21 -2 -30 0 -10 3 -4 5 12 5 17 0 24 -2 18 -5z"/>
<path d="M4516 6510 c-2 -3 0 -16 5 -30 6 -21 14 -11 10 13 -1 5 3 6 8 3 5 -3
20 -2 33 3 12 6 19 11 13 12 -25 5 -67 4 -69 -1z"/>
<path d="M4616 6505 c-3 -8 -1 -17 5 -20 5 -4 7 -11 4 -16 -4 -5 -1 -9 4 -9 6
0 11 7 11 15 0 8 -6 15 -12 15 -10 0 -9 3 1 9 8 5 9 11 3 15 -5 3 -12 -1 -16
-9z"/>
<path d="M4662 6500 c-6 -11 -12 -27 -12 -35 0 -8 -6 -15 -12 -15 -9 0 -8 -3
2 -10 9 -5 19 -5 25 0 7 6 15 6 21 0 7 -7 11 6 12 37 2 31 -1 43 -7 34 -6 -9
-10 -10 -12 -2 -2 6 -10 2 -17 -9z m0 -52 c-6 -6 -7 0 -4 19 5 21 7 23 10 9 2
-10 0 -22 -6 -28z m25 10 c-3 -7 -5 -2 -5 12 0 14 2 19 5 13 2 -7 2 -19 0 -25z"/>
<path d="M4726 6478 c5 -69 17 -59 17 15 0 9 4 17 9 17 5 0 9 -10 8 -22 -4
-47 -1 -56 20 -51 16 4 20 14 20 43 0 37 -1 38 -39 38 l-38 1 3 -41z m64 2 c0
-16 -4 -30 -10 -30 -5 0 -10 14 -10 30 0 17 5 30 10 30 6 0 10 -13 10 -30z"/>
<path d="M4835 6510 c-16 -7 -16 -9 -4 -9 20 -1 20 -34 0 -42 -11 -4 -9 -7 6
-11 19 -5 21 -2 20 33 -1 22 -2 39 -2 38 0 0 -9 -4 -20 -9z"/>
<path d="M4870 6474 c0 -38 2 -43 14 -32 8 7 10 15 5 16 -13 5 -11 40 3 44 7
3 6 7 -5 11 -14 5 -17 0 -17 -39z"/>
<path d="M4942 6512 c-7 -2 -12 -21 -11 -45 1 -23 3 -34 6 -24 3 10 14 17 28
17 14 0 25 -7 28 -17 3 -10 5 1 6 23 1 36 -2 42 -22 46 -12 2 -28 3 -35 0z
m41 -19 c-7 -2 -21 -2 -30 0 -10 3 -4 5 12 5 17 0 24 -2 18 -5z m0 -20 c-7 -2
-21 -2 -30 0 -10 3 -4 5 12 5 17 0 24 -2 18 -5z"/>
<path d="M5050 6510 c-21 -4 -25 -11 -26 -45 l-1 -40 14 30 c13 27 14 28 10 5
-3 -22 0 -25 32 -27 26 -2 32 1 21 7 -11 7 -12 12 -4 18 9 5 8 11 -2 20 -12
10 -14 10 -14 -3 0 -8 -4 -15 -10 -15 -5 0 -10 6 -10 14 0 8 -6 16 -12 19 -7
2 2 4 21 5 18 0 35 3 37 5 8 8 -31 13 -56 7z"/>
<path d="M5134 6482 c3 -20 5 -40 6 -44 0 -8 27 -4 36 5 4 4 13 2 21 -4 10 -9
13 -2 13 37 0 35 -3 45 -10 34 -7 -11 -10 -11 -10 -2 0 7 -4 10 -10 7 -15 -9
-12 -25 5 -25 9 0 15 -9 14 -22 0 -21 -1 -22 -8 -4 -7 19 -8 19 -14 -3 -3 -14
-10 -20 -17 -16 -6 4 -9 9 -6 12 3 3 1 14 -4 24 -7 12 -6 19 2 21 7 3 5 7 -6
11 -15 6 -17 2 -12 -31z"/>
<path d="M4570 6468 c0 -21 0 -21 -15 -2 -11 14 -14 15 -15 4 0 -23 12 -35 40
-38 17 -2 21 0 12 6 -14 10 -13 33 3 44 6 4 2 8 -7 8 -12 0 -18 -8 -18 -22z"/>
<path d="M4417 6388 c-2 -7 -2 -28 0 -46 5 -27 8 -31 20 -20 11 9 16 9 24 -3
6 -10 9 -10 9 -1 0 6 5 12 11 12 5 0 7 -4 4 -10 -3 -5 -1 -10 4 -10 6 0 11 11
11 25 0 20 -5 25 -24 25 -15 0 -26 7 -29 20 -6 22 -22 27 -30 8z m20 -35 c-3
-10 -5 -4 -5 12 0 17 2 24 5 18 2 -7 2 -21 0 -30z"/>
<path d="M4520 6385 c-10 -12 -10 -15 1 -15 11 0 11 -2 -1 -10 -10 -6 -11 -10
-2 -10 6 0 12 -7 12 -16 0 -9 -5 -12 -12 -8 -10 5 -10 4 -1 -6 15 -17 21 -12
25 20 2 14 7 30 10 36 15 24 -13 32 -32 9z"/>
<path d="M4575 6391 c-3 -5 -1 -12 5 -16 5 -3 10 1 10 9 0 18 -6 21 -15 7z"/>
<path d="M4617 6388 c-11 -33 32 -93 49 -67 4 7 10 7 18 0 9 -8 13 1 14 37 2
34 0 43 -8 32 -5 -8 -10 -10 -10 -4 0 6 -7 11 -15 11 -8 0 -12 -3 -10 -7 2 -4
0 -20 -5 -36 -7 -24 -8 -25 -9 -6 -1 12 -7 22 -13 22 -10 0 -9 3 1 9 8 5 9 11
3 15 -6 3 -12 0 -15 -6z m72 -40 c0 -22 -1 -22 -9 -3 -7 16 -9 17 -9 3 -1 -9
-5 -19 -10 -22 -4 -3 -6 6 -3 19 6 31 32 33 31 3z"/>
<path d="M4754 6388 c-7 -12 11 -17 26 -7 8 5 22 9 30 9 12 -1 11 -3 -3 -14
-16 -12 -15 -13 10 -13 16 0 23 2 16 4 -7 2 -9 11 -6 19 4 11 -3 14 -32 12
-20 -2 -39 -6 -41 -10z"/>
<path d="M4862 6370 c0 -21 3 -28 11 -23 7 3 3 -3 -7 -15 l-19 -22 44 0 c48 0
45 -6 40 78 -1 7 -15 12 -34 12 -31 0 -34 -3 -35 -30z"/>
<path d="M4966 6388 c-8 -26 -2 -48 13 -49 12 0 11 -3 -4 -9 -19 -8 -12 -12
20 -12 42 0 43 2 36 70 0 6 -9 12 -20 12 -14 0 -17 -6 -13 -25 3 -16 0 -25 -8
-25 -7 0 -10 7 -6 16 4 10 2 13 -6 8 -8 -5 -9 -2 -5 9 3 10 4 17 1 17 -2 0 -6
-6 -8 -12z m53 -36 c-5 -2 -7 -8 -4 -12 3 -5 0 -12 -6 -16 -9 -5 -10 0 -6 17
4 13 7 31 8 39 0 10 3 8 8 -5 5 -11 4 -22 0 -23z"/>
<path d="M5067 6393 c-2 -5 -3 -19 -2 -33 2 -14 4 -30 4 -36 1 -6 11 -11 24
-10 18 1 22 7 20 29 -1 17 3 27 12 27 7 0 15 6 18 13 3 8 -1 14 -9 14 -8 0
-14 -5 -14 -11 0 -6 -5 -4 -11 4 -8 11 -9 4 -7 -28 2 -26 0 -41 -7 -39 -5 2
-10 14 -9 26 0 11 -4 21 -10 21 -6 0 -5 4 3 9 8 5 9 11 3 15 -6 3 -13 3 -15
-1z"/>
<path d="M5200 6390 c0 -5 7 -10 15 -10 8 0 15 -5 15 -11 0 -6 -7 -9 -15 -5
-9 3 -15 0 -15 -9 0 -8 7 -15 15 -15 21 0 19 -18 -2 -23 -10 -3 2 -5 27 -5 36
0 40 2 20 8 -22 6 -23 8 -7 15 22 9 23 37 0 28 -11 -4 -14 -3 -9 5 4 7 14 12
22 12 8 0 12 5 9 10 -3 6 -22 10 -41 10 -19 0 -34 -4 -34 -10z"/>
<path d="M5308 6383 c-6 -72 -6 -73 32 -73 33 0 36 2 34 28 -2 61 -3 62 -34
62 -21 0 -30 -5 -32 -17z"/>
<path d="M5409 6395 c-7 -46 -5 -55 10 -56 12 0 11 -2 -4 -9 -22 -10 -17 -11
37 -14 22 0 34 3 30 9 -4 6 -5 17 -4 27 2 9 -2 19 -7 23 -7 3 -8 0 -5 -10 4
-8 1 -22 -6 -30 -11 -14 -15 -13 -27 5 -8 11 -12 24 -9 28 2 4 1 14 -5 22 -5
8 -9 11 -10 5z"/>
<path d="M5438 6375 c2 -14 9 -28 14 -31 5 -3 6 5 3 19 -5 19 -2 26 12 30 13
3 10 5 -8 6 -23 1 -26 -2 -21 -24z"/>
<path d="M5507 6393 c-4 -7 -3 -24 2 -64 2 -17 42 -16 51 1 13 24 13 40 0 20
-8 -13 -10 -12 -10 3 0 9 7 17 16 17 12 0 15 -7 12 -25 -3 -14 -2 -27 2 -30 4
-2 7 15 6 39 0 28 -5 43 -13 43 -7 0 -13 -5 -13 -11 0 -6 -5 -4 -10 4 -7 11
-10 5 -10 -22 0 -21 -4 -38 -9 -38 -6 0 -8 9 -6 20 2 11 -2 20 -8 20 -8 0 -8
3 2 9 8 5 9 11 3 15 -6 3 -13 3 -15 -1z"/>
<path d="M4726 6364 c-4 -14 -5 -28 -3 -31 3 -2 8 8 11 23 4 14 5 28 3 31 -3
2 -8 -8 -11 -23z"/>
<path d="M5171 6374 c0 -11 3 -14 6 -6 3 7 2 16 -1 19 -3 4 -6 -2 -5 -13z"/>
<path d="M4567 6360 c10 -11 9 -16 -5 -26 -15 -12 -15 -12 6 -7 32 8 36 20 10
34 -19 9 -21 9 -11 -1z"/>
<path d="M4750 6359 c0 -5 5 -9 10 -9 6 0 9 -3 9 -7 -5 -28 2 -36 15 -17 8 10
18 15 22 11 5 -4 2 -12 -6 -17 -11 -7 -7 -10 15 -10 21 0 26 3 16 9 -7 5 -10
14 -7 20 4 7 0 11 -12 11 -10 0 -22 3 -26 7 -10 11 -36 12 -36 2z"/>
<path d="M5161 6336 c-1 -13 -6 -16 -18 -11 -15 5 -16 4 -5 -6 15 -16 37 2 29
23 -4 8 -6 6 -6 -6z"/>
<path d="M4430 5998 c0 -19 -6 -40 -12 -48 -7 -8 -3 -7 8 3 22 18 29 63 13 73
-5 3 -9 -10 -9 -28z"/>
<path d="M4467 6023 c-6 -9 1 -74 8 -81 3 -3 5 16 5 41 0 45 -4 56 -13 40z"/>
<path d="M4520 6018 c0 -10 5 -18 11 -18 7 0 5 -10 -5 -25 -20 -31 -20 -34 2
-30 9 2 24 4 33 4 9 1 19 10 22 21 4 15 0 20 -16 21 -17 1 -15 3 7 8 28 6 28
7 11 21 -13 10 -16 11 -11 2 6 -10 2 -13 -15 -10 -13 2 -27 8 -31 13 -4 6 -8
2 -8 -7z m30 -52 c0 -3 -4 -8 -10 -11 -5 -3 -10 -1 -10 4 0 6 5 11 10 11 6 0
10 -2 10 -4z"/>
<path d="M4645 6020 c-4 -6 -10 -8 -14 -6 -4 3 -7 -7 -5 -22 1 -15 2 -33 3
-39 1 -7 14 -13 30 -13 20 0 30 6 34 20 3 11 0 20 -6 20 -7 0 -5 5 3 10 13 9
13 10 0 11 -8 1 -21 1 -27 0 -7 -1 -13 2 -13 8 0 5 6 12 13 14 9 4 9 6 0 6 -6
1 -15 -4 -18 -9z m31 -47 c2 -17 -4 -23 -18 -23 -15 0 -19 5 -15 20 3 10 0 21
-7 23 -6 3 0 4 14 3 19 -1 25 -7 26 -23z"/>
<path d="M4720 6020 c0 -5 7 -13 16 -18 15 -8 15 -10 0 -15 -21 -8 -20 -27 2
-28 14 0 14 -2 -3 -9 -16 -7 -11 -9 22 -9 l41 -1 -1 45 c-2 33 -6 45 -17 45
-13 0 -13 -1 0 -10 9 -6 10 -10 3 -10 -6 0 -10 -9 -8 -20 3 -15 -2 -20 -17
-20 -17 0 -18 3 -8 15 10 12 9 16 -6 22 -16 6 -16 7 2 14 17 7 17 8 -3 8 -13
1 -23 -3 -23 -9z"/>
<path d="M4415 5889 c-12 -19 4 -59 25 -59 10 0 21 4 24 8 3 5 -5 8 -17 8 -16
-1 -23 6 -25 23 -3 21 0 23 22 19 14 -3 23 -1 20 3 -7 12 -42 11 -49 -2z"/>
<path d="M4918 5895 c-6 -7 3 -65 11 -65 7 0 7 58 -1 65 -2 3 -7 3 -10 0z"/>
<path d="M4963 5865 c0 -22 2 -30 4 -17 2 12 2 30 0 40 -3 9 -5 -1 -4 -23z"/>
<path d="M4992 5880 c-7 -11 -8 -20 -3 -20 5 0 12 -8 14 -17 3 -10 5 -1 6 20
1 43 0 44 -17 17z"/>
<path d="M5142 5865 c0 -33 1 -36 7 -15 4 14 13 24 19 23 7 -2 12 2 12 8 0 6
-6 9 -14 6 -8 -3 -17 -1 -20 6 -2 7 -4 -6 -4 -28z"/>
<path d="M5201 5863 c1 -33 2 -35 8 -13 l7 25 8 -23 c7 -21 26 -22 26 -1 0 6
-4 7 -10 4 -5 -3 -12 6 -16 20 -9 38 -24 30 -23 -12z"/>
<path d="M5256 5892 c-3 -5 -1 -22 4 -38 8 -29 8 -29 9 9 1 36 -3 45 -13 29z"/>
<path d="M4487 5875 c-9 -22 3 -46 22 -43 10 2 16 13 16 28 0 28 -29 40 -38
15z m33 -15 c0 -11 -4 -20 -9 -20 -14 0 -23 18 -16 30 10 17 25 11 25 -10z"/>
<path d="M4547 5884 c-4 -4 -7 -14 -7 -23 1 -14 2 -13 11 2 14 24 27 21 32 -8
4 -23 4 -23 3 2 -1 27 -24 42 -39 27z"/>
<path d="M4606 5875 c-12 -31 22 -63 38 -36 3 5 -2 8 -12 7 -9 0 -17 6 -17 14
0 8 8 14 17 14 10 -1 15 2 12 7 -8 14 -31 10 -38 -6z"/>
<path d="M4664 5860 c1 -15 8 -26 19 -28 14 -3 17 3 16 30 -2 30 -2 31 -6 6
-5 -34 -20 -37 -26 -5 -3 19 -4 19 -3 -3z"/>
<path d="M4721 5858 c2 -28 2 -29 6 -8 3 14 10 28 17 32 7 5 5 8 -6 8 -14 0
-18 -8 -17 -32z"/>
<path d="M4761 5858 c2 -28 2 -29 6 -8 3 14 10 28 17 32 7 5 5 8 -6 8 -14 0
-18 -8 -17 -32z"/>
<path d="M4807 5884 c-4 -4 -7 -18 -7 -31 0 -23 23 -32 35 -13 3 5 0 7 -9 4
-10 -4 -14 0 -13 15 1 22 12 28 20 11 3 -6 4 -5 3 2 -3 14 -20 21 -29 12z"/>
<path d="M4861 5858 c2 -30 2 -31 6 -5 5 34 20 35 26 2 4 -23 4 -23 3 2 -1 18
-7 29 -18 31 -15 3 -18 -3 -17 -30z"/>
<path d="M5035 5881 c-3 -6 0 -9 7 -6 9 4 14 -2 15 -15 1 -11 -3 -20 -8 -20
-6 0 -7 5 -4 10 3 6 1 10 -4 10 -6 0 -11 -7 -11 -15 0 -8 9 -15 21 -15 16 0
20 5 17 27 -3 28 -22 41 -33 24z"/>
<path d="M5086 5881 c-3 -5 1 -14 10 -21 12 -11 12 -15 2 -21 -10 -7 -9 -9 5
-9 9 0 17 7 17 15 0 8 -4 15 -10 15 -5 0 -10 5 -10 11 0 5 5 7 10 4 6 -3 10
-1 10 4 0 13 -27 15 -34 2z"/>
<path d="M5301 5882 c12 -5 14 -13 8 -27 -4 -11 -8 -14 -8 -7 -1 7 -6 10 -11
7 -15 -9 -2 -25 21 -25 29 0 23 54 -6 57 -16 2 -17 1 -4 -5z"/>
<path d="M5349 5883 c-7 -58 -6 -61 15 -53 26 9 29 53 4 58 -10 2 -18 0 -19
-5z m31 -23 c0 -11 -4 -20 -10 -20 -5 0 -10 9 -10 20 0 11 5 20 10 20 6 0 10
-9 10 -20z"/>
<path d="M4415 5769 c-12 -19 4 -59 25 -59 10 0 21 4 24 8 3 5 -5 8 -17 8 -16
-1 -23 6 -25 23 -3 21 0 23 22 19 14 -3 23 -1 20 3 -7 12 -42 11 -49 -2z"/>
<path d="M4664 5766 c-11 -29 0 -51 26 -51 21 0 25 5 25 30 0 24 -5 31 -23 33
-13 2 -24 -3 -28 -12z m44 -18 c-2 -13 -10 -23 -18 -23 -8 0 -16 10 -18 23 -3
17 2 22 18 22 16 0 21 -5 18 -22z"/>
<path d="M4796 5755 c9 -44 20 -51 29 -18 l7 28 13 -30 c7 -16 14 -28 14 -25
1 3 5 20 10 38 6 20 6 30 0 27 -5 -4 -9 -14 -9 -23 -1 -12 -5 -10 -15 8 l-15
25 -6 -24 -7 -23 -14 23 c-13 24 -13 23 -7 -6z"/>
<path d="M5053 5746 c-10 -33 -10 -34 8 -23 16 10 21 9 29 -3 13 -20 12 -10
-1 29 -14 40 -23 39 -36 -3z m27 4 c0 -5 -5 -10 -11 -10 -5 0 -7 5 -4 10 3 6
8 10 11 10 2 0 4 -4 4 -10z"/>
<path d="M5312 5748 c-2 -34 1 -38 21 -37 15 1 17 3 5 6 -10 2 -18 17 -21 36
-4 31 -4 31 -5 -5z"/>
<path d="M4487 5755 c-9 -22 3 -46 22 -43 10 2 16 13 16 28 0 28 -29 40 -38
15z m33 -15 c0 -11 -4 -20 -9 -20 -14 0 -23 18 -16 30 10 17 25 11 25 -10z"/>
<path d="M4548 5763 c-3 -4 -5 -20 -6 -34 -1 -23 2 -26 24 -21 20 4 25 10 22
31 -3 24 -31 42 -40 24z m32 -23 c0 -11 -4 -20 -10 -20 -5 0 -10 9 -10 20 0
11 5 20 10 20 6 0 10 -9 10 -20z"/>
<path d="M4635 5749 c-6 -17 -9 -19 -16 -8 -6 9 -8 3 -6 -18 1 -18 3 -33 4
-33 6 0 33 73 29 77 -2 3 -7 -5 -11 -18z"/>
<path d="M4741 5738 c2 -30 2 -31 6 -5 5 34 20 35 26 2 4 -23 4 -23 3 2 -1 18
-7 29 -18 31 -15 3 -18 -3 -17 -30z"/>
<path d="M4891 5738 c2 -28 2 -29 6 -8 3 14 10 28 17 32 7 5 5 8 -6 8 -14 0
-18 -8 -17 -32z"/>
<path d="M4932 5740 c0 -19 2 -27 5 -17 2 9 2 25 0 35 -3 9 -5 1 -5 -18z"/>
<path d="M4956 5755 c4 -8 7 -15 9 -15 2 0 5 7 9 15 3 9 0 15 -9 15 -9 0 -12
-6 -9 -15z"/>
<path d="M4994 5756 c-9 -23 3 -46 23 -45 17 1 17 2 1 6 -19 5 -25 43 -7 43 5
0 7 -4 4 -10 -3 -5 -1 -10 5 -10 15 0 8 22 -8 28 -7 2 -15 -3 -18 -12z"/>
<path d="M5115 5749 c-10 -30 0 -33 13 -4 6 14 7 25 2 25 -5 0 -12 -9 -15 -21z"/>
<path d="M5155 5759 c-11 -17 1 -21 15 -4 8 9 8 15 2 15 -6 0 -14 -5 -17 -11z"/>
<path d="M5208 5763 c15 -6 16 -43 1 -43 -5 0 -7 5 -4 10 3 6 1 10 -5 10 -21
0 -4 -25 18 -28 14 -2 22 2 22 11 0 28 -12 47 -29 46 -10 0 -11 -2 -3 -6z"/>
<path d="M5250 5744 c6 -15 9 -33 6 -41 -12 -30 6 -10 20 22 18 44 18 58 -1
25 -10 -18 -14 -20 -15 -8 0 9 -4 20 -10 23 -6 4 -6 -4 0 -21z"/>
<path d="M5362 5740 c0 -19 2 -27 5 -17 2 9 2 25 0 35 -3 9 -5 1 -5 -18z"/>
<path d="M5390 5755 c0 -9 8 -19 17 -22 15 -6 15 -7 -3 -14 -16 -6 -16 -8 -2
-8 24 -1 31 14 12 29 -12 11 -12 15 -2 21 10 7 9 9 -4 9 -10 0 -18 -7 -18 -15z"/>
<path d="M5440 5746 c0 -14 3 -27 8 -29 4 -3 7 8 7 24 0 16 -3 29 -7 29 -5 0
-8 -11 -8 -24z"/>
<path d="M4960 5720 c0 -5 5 -10 11 -10 5 0 7 5 4 10 -3 6 -8 10 -11 10 -2 0
-4 -4 -4 -10z"/>
<path d="M4412 5633 l1 -48 7 45 6 45 5 -35 6 -35 1 38 c2 27 -2 37 -13 37
-11 0 -15 -11 -13 -47z"/>
<path d="M4448 5635 c-3 -43 -2 -45 23 -45 22 0 26 4 22 20 -3 11 -12 20 -19
20 -20 0 -17 38 4 43 13 4 12 5 -4 6 -19 1 -22 -5 -26 -44z m32 -25 c0 -5 -4
-10 -10 -10 -5 0 -10 5 -10 10 0 6 5 10 10 10 6 0 10 -4 10 -10z"/>
<path d="M4534 5653 c-4 -16 -12 -31 -18 -35 -6 -4 0 -8 14 -9 23 0 23 -1 5
-9 -16 -7 -11 -9 20 -9 31 0 36 2 20 9 -18 8 -18 9 5 9 14 1 20 5 14 9 -6 4
-13 17 -17 30 -4 18 -2 22 9 18 9 -3 12 -1 9 4 -3 6 -17 10 -30 10 -19 0 -26
-7 -31 -27z"/>
<path d="M4724 5655 c-1 -14 3 -25 9 -25 7 0 7 -4 -1 -12 -7 -7 -12 -17 -12
-22 1 -16 40 34 40 49 0 7 -6 16 -12 18 -8 3 -7 6 4 6 11 1 18 -9 21 -26 4
-26 4 -26 3 2 -1 24 -6 31 -26 33 -21 2 -25 -2 -26 -23z m26 -15 c0 -5 -2 -10
-4 -10 -3 0 -8 5 -11 10 -3 6 -1 10 4 10 6 0 11 -4 11 -10z"/>
<path d="M4788 5635 c-2 -25 0 -45 4 -45 5 0 8 20 8 45 0 25 -2 45 -4 45 -2 0
-6 -20 -8 -45z"/>
<path d="M4634 5643 c2 -12 -1 -24 -8 -27 -6 -2 -3 -5 7 -5 11 -1 16 -6 12
-13 -3 -7 2 -3 11 10 16 21 17 21 30 5 13 -16 13 -15 3 10 -14 31 -26 35 -32
10 -3 -15 -6 -14 -16 7 -10 22 -11 22 -7 3z"/>
<path d="M4425 5560 c-17 -7 -17 -9 -2 -9 10 -1 17 -9 17 -21 0 -12 -7 -20
-17 -21 -14 0 -15 -2 -3 -6 8 -3 18 -11 22 -17 4 -6 8 10 8 37 0 26 -1 47 -2
46 -2 0 -12 -4 -23 -9z"/>
<path d="M4460 5522 c0 -26 4 -42 8 -36 4 6 14 14 22 17 12 4 11 6 -2 6 -11 1
-18 9 -18 20 0 11 8 21 18 23 14 3 13 5 -5 10 -22 6 -23 3 -23 -40z"/>
<path d="M4512 5523 l1 -48 7 45 6 45 5 -35 6 -35 1 38 c2 27 -2 37 -13 37
-11 0 -15 -11 -13 -47z"/>
<path d="M4548 5525 c-3 -42 -2 -45 22 -45 24 0 25 3 22 45 -3 35 -8 45 -22
45 -14 0 -19 -10 -22 -45z m32 15 c0 -11 -4 -20 -10 -20 -5 0 -10 9 -10 20 0
11 5 20 10 20 6 0 10 -9 10 -20z m0 -40 c0 -5 -4 -10 -10 -10 -5 0 -10 5 -10
10 0 6 5 10 10 10 6 0 10 -4 10 -10z"/>
<path d="M4627 5564 c-9 -9 12 -46 23 -39 5 3 11 1 15 -4 3 -6 -3 -8 -13 -6
-10 2 -25 -1 -33 -6 -10 -6 -8 -9 11 -10 23 0 23 -1 5 -9 -16 -7 -11 -9 20 -9
31 0 36 2 20 9 -18 8 -18 9 5 9 19 1 21 4 12 13 -16 16 -16 52 0 42 7 -4 8 -3
4 4 -8 13 -58 16 -69 6z"/>
<path d="M4721 5523 c0 -27 3 -42 6 -35 2 6 9 12 14 12 6 0 7 -6 4 -12 -4 -7
2 -3 12 8 18 20 21 20 31 5 10 -13 11 -12 2 6 -5 12 -10 32 -11 45 0 17 -4 12
-14 -17 -7 -22 -13 -34 -14 -27 -1 7 -4 11 -8 9 -5 -3 -8 5 -8 18 0 13 3 21 8
18 4 -2 7 1 7 6 0 6 -7 11 -15 11 -11 0 -15 -12 -14 -47z"/>
<path d="M4824 5548 c1 -13 5 -26 10 -30 6 -4 4 -14 -4 -25 -13 -16 -12 -16 8
1 24 21 30 56 10 57 -7 0 -4 4 7 9 18 8 18 9 -6 9 -20 1 -25 -4 -25 -21z"/>
<path d="M4415 5429 c-12 -19 4 -59 25 -59 10 0 21 4 24 8 3 5 -5 8 -17 8 -16
-1 -23 6 -25 23 -3 21 0 23 22 19 14 -3 23 -1 20 3 -7 12 -42 11 -49 -2z"/>
<path d="M4918 5435 c-6 -7 2 -54 11 -59 7 -5 7 52 -1 59 -2 3 -7 3 -10 0z"/>
<path d="M4960 5425 c0 -9 7 -18 15 -21 23 -9 18 -26 -6 -19 -15 5 -19 4 -15
-4 10 -16 43 -13 50 4 3 9 -3 19 -17 26 -21 12 -21 12 -2 20 19 7 19 8 -2 8
-14 1 -23 -5 -23 -14z"/>
<path d="M5021 5405 c0 -22 3 -34 6 -27 4 10 8 10 21 0 12 -10 14 -10 8 0 -4
6 -14 24 -22 40 l-14 27 1 -40z"/>
<path d="M5162 5408 c-2 -35 0 -38 26 -37 22 1 23 2 5 6 -16 3 -23 13 -26 36
-4 31 -4 31 -5 -5z"/>
<path d="M5223 5405 c0 -22 2 -30 4 -17 2 12 2 30 0 40 -3 9 -5 -1 -4 -23z"/>
<path d="M5341 5403 c1 -33 2 -35 8 -13 l7 25 7 -25 7 -25 14 25 14 24 5 -24
c3 -18 5 -15 6 13 1 43 -14 50 -24 10 l-7 -28 -14 28 c-19 36 -24 34 -23 -10z"/>
<path d="M4487 5415 c-9 -22 3 -46 22 -43 10 2 16 13 16 28 0 28 -29 40 -38
15z m33 -15 c0 -11 -4 -20 -9 -20 -14 0 -23 18 -16 30 10 17 25 11 25 -10z"/>
<path d="M4543 5403 c0 -27 0 -27 10 -5 13 29 25 28 30 -3 4 -23 4 -23 3 2 -1
20 -7 29 -22 31 -18 3 -21 -2 -21 -25z"/>
<path d="M4606 5415 c-12 -31 22 -63 38 -36 3 5 -2 8 -12 7 -9 0 -17 6 -17 14
0 8 8 14 17 14 10 -1 15 2 12 7 -8 14 -31 10 -38 -6z"/>
<path d="M4664 5400 c1 -15 8 -26 19 -28 14 -3 17 3 16 30 -2 30 -2 31 -6 6
-5 -34 -20 -37 -26 -5 -3 19 -4 19 -3 -3z"/>
<path d="M4721 5398 c2 -28 2 -29 6 -8 3 14 10 28 17 32 7 5 5 8 -6 8 -14 0
-18 -8 -17 -32z"/>
<path d="M4761 5398 c2 -28 2 -29 6 -8 3 14 10 28 17 32 7 5 5 8 -6 8 -14 0
-18 -8 -17 -32z"/>
<path d="M4807 5424 c-4 -4 -7 -18 -7 -31 0 -23 23 -32 35 -13 3 6 -1 7 -9 4
-11 -4 -16 0 -16 15 0 22 15 29 23 11 3 -6 4 -5 3 2 -3 14 -20 21 -29 12z"/>
<path d="M4861 5398 c2 -30 2 -31 6 -5 5 34 20 35 26 2 4 -23 4 -23 3 2 -1 18
-7 29 -18 31 -15 3 -18 -3 -17 -30z"/>
<path d="M5101 5388 c0 -24 3 -37 6 -30 2 6 11 12 18 12 8 0 17 5 20 10 11 18
-6 50 -26 50 -16 0 -19 -7 -18 -42z m31 0 c-15 -15 -26 -4 -18 18 5 13 9 15
18 6 9 -9 9 -15 0 -24z"/>
<path d="M5246 5421 c-3 -5 1 -14 10 -21 12 -11 12 -15 2 -21 -10 -7 -9 -9 5
-9 9 0 17 7 17 15 0 8 -4 15 -10 15 -5 0 -10 5 -10 11 0 5 5 7 10 4 6 -3 10
-1 10 4 0 13 -27 15 -34 2z"/>
<path d="M5300 5406 c0 -14 3 -27 8 -29 4 -3 7 8 7 24 0 16 -3 29 -7 29 -5 0
-8 -11 -8 -24z"/>
<path d="M5438 5423 c15 -6 16 -43 1 -43 -5 0 -7 5 -4 10 3 6 1 10 -5 10 -21
0 -4 -25 18 -28 14 -2 22 2 22 11 0 28 -12 47 -29 46 -10 0 -11 -2 -3 -6z"/>
<path d="M5480 5388 c0 -24 4 -38 8 -32 4 6 15 13 25 17 26 10 18 51 -10 55
-21 3 -23 -1 -23 -40z m40 12 c0 -21 -15 -27 -25 -10 -7 12 2 30 16 30 5 0 9
-9 9 -20z"/>
<path d="M3450 5325 c-1 -11 -2 -24 -1 -29 1 -4 -6 -14 -16 -22 -16 -12 -16
-13 6 -7 19 5 22 2 19 -13 -3 -14 -11 -18 -30 -16 -15 1 -29 -1 -31 -5 -3 -5
19 -8 49 -8 30 -1 54 3 54 8 0 4 -5 5 -11 1 -8 -4 -9 1 -4 16 5 15 4 20 -4 16
-6 -4 -11 -2 -11 3 0 6 8 11 18 12 11 1 9 4 -8 9 -17 5 -19 8 -7 9 18 1 23 26
7 36 -6 3 -7 -1 -4 -9 3 -9 1 -16 -4 -16 -6 0 -13 8 -15 18 -4 15 -5 14 -7 -3z"/>
<path d="M3696 5316 c-4 -18 -14 -26 -29 -27 -16 -1 -17 -3 -5 -6 10 -2 15
-10 11 -19 -3 -9 1 -14 13 -14 22 0 8 -16 -21 -24 -11 -3 -6 -3 10 0 44 7 48
7 70 -1 19 -6 19 -6 3 8 -10 8 -18 19 -18 25 0 6 8 16 18 21 14 9 11 10 -17
11 -29 0 -32 2 -21 15 9 11 10 19 3 26 -7 7 -12 2 -17 -15z m27 -51 c-6 -17
-25 -15 -31 3 -2 7 5 12 17 12 14 0 19 -5 14 -15z"/>
<path d="M3809 5314 l-33 -24 26 0 c33 0 44 -15 21 -29 -17 -10 -17 -10 0 -11
27 0 20 -18 -10 -23 -16 -2 -1 -4 32 -4 33 0 48 2 33 4 -31 5 -37 19 -10 26
16 4 16 5 0 6 -10 0 -18 8 -18 16 0 13 18 20 43 16 13 -2 7 5 -22 27 l-29 21
-33 -25z m56 -4 c4 -6 -7 -10 -27 -10 -25 0 -29 3 -18 10 19 13 37 13 45 0z"/>
<path d="M3133 5315 c0 -8 6 -15 14 -15 20 0 15 -31 -9 -58 -15 -16 -18 -23
-8 -20 8 3 22 18 30 34 8 16 18 30 21 32 4 2 4 12 2 23 -5 16 -8 18 -15 7 -7
-10 -11 -10 -15 0 -7 17 -20 15 -20 -3z"/>
<path d="M3300 5321 c32 -4 40 -8 28 -13 -12 -5 -18 -18 -18 -42 0 -24 -5 -36
-17 -39 -14 -4 -12 -5 5 -6 18 -1 22 4 22 31 0 19 9 41 22 55 l21 23 -54 -2
-54 -1 45 -6z"/>
<path d="M3399 5323 c-6 -30 -6 -73 0 -73 3 0 12 13 18 29 9 24 8 29 -3 24
-10 -4 -12 0 -8 11 3 9 3 16 0 16 -3 0 -7 -3 -7 -7z"/>
<path d="M3530 5315 c7 -8 9 -15 4 -15 -5 0 -10 -11 -10 -25 -1 -14 2 -22 7
-19 5 3 9 -5 9 -17 0 -43 12 -10 14 40 3 45 0 51 -17 51 -16 0 -17 -3 -7 -15z"/>
<path d="M3570 5310 c0 -25 45 -28 54 -4 9 23 8 24 -24 24 -23 0 -30 -4 -30
-20z m45 0 c-3 -5 -13 -10 -21 -10 -8 0 -14 5 -14 10 0 6 9 10 21 10 11 0 17
-4 14 -10z"/>
<path d="M3650 5310 c0 -5 7 -7 15 -4 8 4 15 8 15 10 0 2 -7 4 -15 4 -8 0 -15
-4 -15 -10z"/>
<path d="M3745 5310 c3 -5 8 -10 11 -10 2 0 4 5 4 10 0 6 -5 10 -11 10 -5 0
-7 -4 -4 -10z"/>
<path d="M3218 5273 c3 -18 -1 -30 -13 -40 -16 -11 -16 -13 -3 -13 9 0 19 7
22 16 9 23 7 64 -3 64 -4 0 -6 -12 -3 -27z"/>
<path d="M3180 5271 c0 -6 4 -13 10 -16 6 -3 7 1 4 9 -7 18 -14 21 -14 7z"/>
<path d="M3579 5271 c11 -7 11 -9 0 -14 -10 -4 -10 -6 -1 -6 18 -1 15 -19 -5
-24 -10 -3 0 -5 22 -5 22 0 32 2 23 5 -10 2 -18 9 -18 14 0 5 8 9 18 10 14 0
14 2 -3 8 l-20 8 20 5 c13 4 7 6 -15 7 -23 0 -30 -2 -21 -8z"/>
<path d="M4438 5173 c7 -3 16 -2 19 1 4 3 -2 6 -13 5 -11 0 -14 -3 -6 -6z"/>
<path d="M4747 5057 c-1 -5 -1 -24 1 -43 4 -31 7 -34 38 -34 19 0 34 4 34 8 0
5 -13 7 -30 4 -18 -3 -30 0 -30 7 0 6 7 11 15 11 24 0 17 28 -7 33 -16 3 -13
5 11 6 29 1 33 -2 28 -19 -3 -11 -1 -18 4 -14 5 3 9 13 9 23 0 14 -9 20 -35
23 -19 2 -36 0 -38 -5z"/>
<path d="M5013 5058 c0 -7 -3 -24 -7 -37 -5 -15 -5 -21 2 -17 6 3 13 -2 15
-11 4 -17 5 -17 6 0 0 9 7 17 15 17 8 0 17 -8 19 -17 4 -17 5 -17 6 0 0 9 6
17 11 17 6 0 10 10 9 23 0 21 -1 21 -9 2 -7 -17 -9 -16 -10 10 l-2 30 -8 -30
c-5 -21 -8 -24 -10 -10 l-1 20 -10 -20 c-8 -17 -9 -16 -6 8 3 16 0 27 -8 27
-6 0 -12 -6 -12 -12z"/>
<path d="M5112 5028 l1 -43 4 38 c3 27 9 37 21 37 13 0 14 -2 4 -9 -16 -10
-12 -63 6 -69 6 -2 12 4 12 13 0 13 3 15 13 7 9 -8 13 -3 14 19 2 21 -2 29
-15 30 -14 0 -14 2 3 9 15 7 10 9 -22 9 l-43 1 2 -42z m61 -5 c-7 -2 -19 -2
-25 0 -7 3 -2 5 12 5 14 0 19 -2 13 -5z"/>
<path d="M5243 5063 c22 -4 25 -7 14 -18 -7 -7 -22 -15 -33 -18 -16 -4 -16 -5
4 -6 23 -1 31 -26 10 -34 -8 -3 -6 -6 5 -6 10 -1 17 6 17 18 0 12 8 21 23 24
21 4 21 4 -2 6 -23 1 -24 2 -6 21 18 20 17 20 -21 19 -30 -2 -33 -3 -11 -6z"/>
<path d="M5350 5061 c0 -7 -4 -9 -10 -6 -5 3 -10 -1 -10 -10 0 -9 5 -13 10
-10 18 11 11 -14 -10 -35 -22 -22 -19 -25 12 -9 14 8 23 8 31 0 6 -6 16 -11
22 -11 5 0 2 5 -8 11 -9 6 -15 14 -12 20 4 5 1 9 -6 9 -8 0 -6 5 4 13 13 9 14
16 6 27 -9 12 -10 11 -5 -5 6 -20 6 -20 -9 -1 -8 11 -15 14 -15 7z"/>
<path d="M4468 5055 c-6 -7 3 -65 11 -65 7 0 7 58 -1 65 -2 3 -7 3 -10 0z"/>
<path d="M4944 5046 c-10 -26 1 -51 21 -51 29 0 32 35 3 43 l-23 6 25 7 c24 7
24 7 2 8 -12 1 -25 -5 -28 -13z m36 -31 c0 -8 -7 -15 -15 -15 -8 0 -15 7 -15
15 0 8 7 15 15 15 8 0 15 -7 15 -15z"/>
<path d="M4415 5040 c-3 -5 0 -7 7 -5 9 4 14 -2 15 -15 1 -11 -3 -20 -8 -20
-6 0 -7 5 -4 10 3 6 1 10 -4 10 -6 0 -11 -7 -11 -15 0 -8 9 -15 20 -15 16 0
20 7 20 30 0 30 -21 42 -35 20z"/>
<path d="M4507 5035 c-9 -22 3 -46 22 -43 10 2 16 13 16 28 0 28 -29 40 -38
15z m33 -15 c0 -11 -4 -20 -9 -20 -14 0 -23 18 -16 30 10 17 25 11 25 -10z"/>
<path d="M4566 5043 c-3 -3 -6 -18 -5 -32 1 -25 1 -25 7 -3 4 13 12 23 17 23
6 0 13 -10 17 -23 6 -22 6 -21 7 5 1 34 18 36 24 2 4 -23 4 -23 3 2 -1 23 -6
28 -32 30 -17 1 -34 0 -38 -4z"/>
<path d="M4652 5020 c0 -19 2 -27 5 -17 2 9 2 25 0 35 -3 9 -5 1 -5 -18z"/>
<path d="M4687 5043 c-4 -3 -7 -17 -7 -30 0 -23 23 -32 35 -13 3 6 -1 7 -9 4
-12 -4 -16 0 -16 16 0 16 4 20 16 16 8 -3 12 -2 9 4 -7 12 -19 13 -28 3z"/>
<path d="M176 4831 c-4 -5 -2 -12 3 -15 5 -4 12 -2 15 3 4 5 2 12 -3 15 -5 4
-12 2 -15 -3z"/>
<path d="M4417 4792 c6 -4 13 -21 16 -37 l4 -30 2 32 c0 17 7 34 14 36 6 3 -1
6 -18 6 -16 0 -25 -3 -18 -7z"/>
<path d="M4712 4789 c-31 -12 -27 -53 6 -57 19 -3 22 1 22 32 0 20 -1 36 -2
35 -2 0 -13 -4 -26 -10z m11 -23 c6 -15 -1 -26 -15 -26 -4 0 -8 9 -8 20 0 23
15 27 23 6z"/>
<path d="M4752 4768 c-2 -35 0 -38 26 -37 22 1 23 2 5 6 -16 3 -23 13 -26 36
-4 31 -4 31 -5 -5z"/>
<path d="M4983 4765 c0 -22 2 -30 4 -17 2 12 2 30 0 40 -3 9 -5 -1 -4 -23z"/>
<path d="M4481 4773 c0 -10 3 -13 6 -5 8 20 21 14 26 -13 4 -23 4 -23 3 2 -1
18 -7 29 -18 31 -12 2 -18 -3 -17 -15z"/>
<path d="M4541 4758 c2 -28 2 -29 6 -8 3 14 10 28 17 32 7 5 5 8 -6 8 -14 0
-18 -8 -17 -32z"/>
<path d="M4576 4775 c-12 -32 22 -63 39 -35 3 6 -1 7 -9 4 -12 -5 -16 0 -16
17 0 19 2 21 10 9 5 -8 12 -11 15 -8 10 9 -4 28 -20 28 -7 0 -15 -7 -19 -15z"/>
<path d="M4635 4781 c-3 -7 0 -8 9 -5 11 4 16 0 16 -15 0 -12 -5 -21 -11 -21
-5 0 -7 5 -4 10 3 6 1 10 -4 10 -6 0 -11 -7 -11 -15 0 -8 9 -15 21 -15 16 0
20 5 17 27 -3 28 -22 41 -33 24z"/>
<path d="M4817 4784 c-4 -4 -7 -18 -7 -31 0 -18 5 -24 18 -21 10 2 17 12 17
27 0 24 -15 37 -28 25z m23 -24 c0 -11 -4 -20 -10 -20 -5 0 -10 9 -10 20 0 11
5 20 10 20 6 0 10 -9 10 -20z"/>
<path d="M4877 4783 c-4 -3 -7 -17 -7 -30 0 -23 23 -32 35 -13 3 6 -1 7 -9 4
-12 -4 -16 0 -16 16 0 16 4 20 16 16 8 -3 12 -2 9 4 -7 12 -19 13 -28 3z"/>
<path d="M4938 4783 c15 -6 16 -43 1 -43 -5 0 -7 5 -4 10 3 6 1 10 -5 10 -21
0 -4 -25 18 -28 14 -2 22 2 22 11 0 28 -12 47 -29 46 -10 0 -11 -2 -3 -6z"/>
<path d="M994 4645 c4 -10 -1 -15 -14 -15 -11 0 -20 -4 -20 -10 0 -5 9 -10 20
-10 30 0 27 -40 -2 -41 -17 -1 -19 -2 -5 -6 21 -6 22 -21 0 -45 -13 -15 -13
-18 -2 -18 8 0 23 14 32 30 10 17 27 30 38 30 15 0 19 -7 20 -37 l1 -38 10 38
c7 26 15 37 24 33 7 -3 16 -1 19 4 4 6 -5 10 -19 10 -19 0 -26 5 -26 20 0 13
7 20 20 20 11 0 20 5 20 10 0 6 -7 10 -15 10 -8 0 -15 8 -15 18 -1 16 -1 16
-14 0 -16 -22 -45 -23 -52 -3 -4 8 -11 15 -16 15 -6 0 -8 -7 -4 -15z m66 -55
c0 -15 -7 -20 -25 -20 -24 0 -34 18 -18 33 15 15 43 7 43 -13z"/>
<path d="M1197 4640 c-6 -23 -27 -27 -27 -5 0 8 -4 15 -10 15 -5 0 -10 -11
-10 -25 0 -16 6 -25 15 -25 22 0 18 -25 -10 -58 -14 -17 -21 -33 -16 -36 5 -4
19 5 30 20 11 14 25 23 31 19 16 -10 12 -23 -10 -30 -11 -4 -18 -11 -15 -16 4
-5 18 -3 33 5 23 12 31 12 55 0 15 -8 27 -10 27 -5 0 6 -9 15 -20 21 -16 9
-18 15 -10 30 15 27 13 30 -19 30 -17 0 -33 5 -36 10 -4 6 12 10 39 10 25 0
46 5 46 10 0 6 -5 10 -11 10 -5 0 -8 4 -5 9 3 5 -1 12 -10 15 -24 9 -28 7 -14
-9 11 -13 8 -15 -14 -15 -23 0 -26 3 -21 20 3 11 2 20 -3 20 -5 0 -12 -9 -15
-20z m46 -85 c-6 -17 -25 -15 -31 3 -2 7 5 12 17 12 14 0 19 -5 14 -15z"/>
<path d="M1331 4642 c-16 -30 -15 -48 3 -33 10 9 16 9 21 1 4 -7 -2 -14 -14
-17 -24 -6 -28 -23 -6 -23 19 0 19 -11 0 -36 -23 -30 -17 -40 9 -15 22 21 25
21 34 6 5 -11 12 -13 16 -7 3 5 -1 15 -9 22 -19 16 -19 30 0 30 8 0 15 5 15
10 0 6 -7 10 -15 10 -8 0 -15 7 -15 15 0 8 7 15 16 15 8 0 12 5 9 11 -4 6 -13
8 -21 5 -7 -3 -18 2 -23 11 -8 14 -10 14 -20 -5z"/>
<path d="M1693 4620 c-12 -22 -17 -42 -12 -46 5 -3 9 -23 9 -45 0 -21 5 -39
10 -39 6 0 10 9 10 19 0 36 56 34 63 -3 4 -21 4 -21 6 2 1 20 16 28 44 23 12
-2 7 23 -8 43 -19 25 -19 36 0 36 8 0 15 5 15 10 0 6 -11 10 -24 10 -15 0 -26
7 -29 18 -4 16 -5 16 -6 0 -1 -12 -9 -18 -26 -18 -14 0 -25 -4 -25 -10 0 -5 7
-10 15 -10 8 0 15 -2 15 -5 0 -11 -31 -65 -37 -65 -3 0 -3 27 0 60 3 33 4 60
4 60 -1 0 -12 -18 -24 -40z m73 -66 c-12 -30 -25 -13 -13 19 8 23 12 27 15 14
2 -10 1 -25 -2 -33z m44 -7 c0 -20 -25 1 -28 24 -2 23 -2 23 13 5 8 -11 15
-24 15 -29z"/>
<path d="M1928 4653 c-55 -4 -84 -23 -35 -23 20 -1 20 -2 5 -11 -26 -14 -22
-32 5 -26 21 6 21 6 3 -8 -11 -8 -23 -15 -28 -15 -4 0 -8 -4 -8 -10 0 -5 14
-10 30 -10 23 0 30 -5 30 -19 0 -11 -6 -21 -12 -24 -7 -2 -10 -8 -5 -12 11
-13 32 13 32 38 0 15 7 23 23 25 12 2 22 -1 22 -7 0 -6 -8 -11 -17 -11 -15 0
-14 -3 5 -22 22 -23 43 -19 24 5 -7 8 -8 17 -2 23 5 5 2 17 -7 29 -11 14 -17
16 -20 8 -3 -7 -17 -13 -31 -13 -26 1 -27 1 -7 16 11 8 27 19 35 24 8 5 11 12
7 16 -4 4 -13 2 -19 -4 -7 -7 -18 -12 -26 -12 -12 0 -12 3 -2 15 7 8 25 15 41
15 16 0 29 5 29 10 0 6 -3 9 -7 8 -5 -1 -34 -3 -65 -5z"/>
<path d="M1520 4635 c7 -9 15 -13 17 -11 7 7 -7 26 -19 26 -6 0 -6 -6 2 -15z"/>
<path d="M1560 4605 l0 -45 45 0 45 0 0 45 0 45 -45 0 -45 0 0 -45z m70 0 c0
-20 -5 -25 -25 -25 -20 0 -25 5 -25 25 0 20 5 25 25 25 20 0 25 -5 25 -25z"/>
<path d="M600 4591 c0 -51 -13 -72 -33 -52 -15 15 -27 14 -27 -4 0 -20 23 -29
55 -21 23 6 25 11 25 66 0 33 -4 60 -10 60 -5 0 -10 -22 -10 -49z"/>
<path d="M1410 4573 l0 -68 30 -1 30 -1 0 68 0 69 -30 0 -30 0 0 -67z m44 39
c-1 -7 -2 -28 -2 -47 -2 -24 -7 -35 -17 -35 -11 0 -15 11 -15 43 0 24 3 47 7
51 10 9 28 1 27 -12z"/>
<path d="M663 4603 c-24 -9 -13 -23 12 -17 15 4 25 2 25 -5 0 -6 -11 -13 -24
-17 -52 -13 -36 -51 22 -52 30 -1 32 1 32 37 0 52 -25 72 -67 54z m37 -63 c0
-5 -7 -10 -15 -10 -8 0 -15 5 -15 10 0 6 7 10 15 10 8 0 15 -4 15 -10z"/>
<path d="M754 4585 c12 -49 26 -75 39 -75 16 0 41 75 31 92 -5 7 -12 -4 -19
-28 l-11 -39 -13 38 c-14 41 -37 52 -27 12z"/>
<path d="M864 4595 c-18 -15 -17 -16 14 -10 40 8 42 -7 2 -22 -16 -6 -30 -18
-30 -27 0 -17 0 -18 48 -22 31 -2 32 -1 32 35 0 57 -28 76 -66 46z m41 -55
c-3 -5 -13 -10 -21 -10 -8 0 -14 5 -14 10 0 6 9 10 21 10 11 0 17 -4 14 -10z"/>
<path d="M1503 4593 c15 -4 18 -13 16 -43 -4 -46 3 -57 22 -34 11 13 11 18 2
21 -7 3 -13 18 -13 34 0 24 -4 29 -22 28 -18 -1 -19 -2 -5 -6z"/>
<path d="M1566 4526 c-8 -14 -12 -27 -7 -30 9 -6 37 41 29 49 -3 3 -13 -6 -22
-19z"/>
<path d="M1620 4544 c0 -15 27 -50 34 -43 4 3 -2 17 -13 30 -11 13 -20 19 -21
13z"/>
<path d="M4637 4536 c-5 -12 0 -16 23 -16 23 0 28 4 23 16 -5 13 -7 13 -14 2
-8 -11 -10 -11 -18 0 -7 11 -9 11 -14 -2z"/>
<path d="M4723 4516 c6 -44 24 -61 46 -43 12 9 13 9 7 0 -5 -9 0 -13 16 -13
13 0 19 4 13 8 -15 10 -17 32 -5 47 7 9 6 16 -5 25 -16 13 -18 8 -16 -35 l1
-20 -9 20 c-5 11 -7 23 -4 28 2 4 -1 7 -8 7 -6 0 -9 -8 -6 -20 3 -11 1 -20 -4
-20 -5 0 -10 5 -10 10 -1 6 -2 14 -3 19 0 5 -5 13 -10 18 -4 4 -6 -9 -3 -31z"/>
<path d="M4843 4542 c-39 -6 -25 -17 21 -17 24 0 42 3 40 6 -6 10 -36 15 -61
11z"/>
<path d="M1874 4526 c-10 -8 -15 -18 -11 -22 4 -4 17 2 30 14 24 25 12 30 -19
8z"/>
<path d="M4417 4533 c-2 -5 -1 -19 3 -33 l6 -25 6 28 c5 26 -5 47 -15 30z"/>
<path d="M4593 4505 c0 -22 2 -30 4 -17 2 12 2 30 0 40 -3 9 -5 -1 -4 -23z"/>
<path d="M4452 4500 c0 -19 2 -27 5 -17 2 9 2 25 0 35 -3 9 -5 1 -5 -18z"/>
<path d="M4475 4520 c-4 -6 -4 -14 0 -18 4 -4 10 -1 12 6 8 20 21 14 26 -13 4
-23 4 -23 3 2 -1 29 -28 44 -41 23z"/>
<path d="M4548 4523 c15 -6 16 -43 1 -43 -5 0 -7 5 -4 10 3 6 1 10 -5 10 -21
0 -4 -25 18 -28 14 -2 22 2 22 11 0 28 -12 47 -29 46 -10 0 -11 -2 -3 -6z"/>
<path d="M4865 4511 c-6 -5 -19 -11 -30 -14 -17 -4 -17 -5 4 -6 16 -1 21 -5
17 -16 -3 -8 -1 -15 4 -15 6 0 10 6 10 14 0 8 10 17 23 19 21 4 21 4 -3 6 -20
1 -22 3 -10 11 8 5 10 10 5 10 -6 0 -15 -4 -20 -9z"/>
<path d="M4633 4503 c18 -5 18 -5 0 -25 -18 -21 -18 -21 6 -7 13 8 33 20 45
26 19 11 16 13 -24 12 -25 -1 -37 -3 -27 -6z"/>
<path d="M4670 4486 c0 -2 8 -10 18 -17 15 -13 16 -12 3 4 -13 16 -21 21 -21
13z"/>
<path d="M1285 4242 c-3 -8 -5 -852 -5 -1877 0 -1323 3 -1872 11 -1894 6 -17
19 -36 29 -41 25 -13 1080 -14 1080 0 0 6 -171 10 -461 12 l-461 3 -25 30 -26
30 6 1100 c4 605 7 1447 8 1870 l0 770 -75 5 c-58 4 -77 2 -81 -8z"/>
<path d="M4830 4005 c-8 -37 -6 -55 6 -55 8 0 13 5 12 11 -2 6 3 14 11 17 8 2
11 0 7 -6 -3 -6 -2 -14 4 -17 8 -5 8 -11 1 -19 -8 -9 -6 -12 9 -11 11 1 23 5
27 10 5 4 2 4 -6 0 -11 -6 -13 -4 -8 8 3 9 2 19 -3 22 -6 4 -10 16 -11 28 0
12 -3 16 -6 10 -2 -7 -11 -13 -18 -13 -7 0 -16 6 -18 13 -3 6 -6 8 -7 2z"/>
<path d="M4924 3975 c0 -28 2 -32 13 -23 8 6 12 20 10 30 -3 10 -1 18 4 18 5
0 9 -4 9 -10 0 -5 10 -10 23 -9 21 0 21 1 2 8 l-20 8 20 5 c11 3 3 6 -20 7
-39 1 -40 0 -41 -34z"/>
<path d="M5030 4000 c0 -5 7 -10 16 -10 9 0 12 -5 8 -12 -5 -8 -2 -9 9 -5 11
4 17 1 17 -8 0 -20 19 -19 27 1 6 16 -15 37 -29 28 -4 -3 -17 0 -28 6 -13 7
-20 7 -20 0z"/>
<path d="M4969 3961 c11 -7 11 -9 0 -14 -11 -4 -11 -6 1 -6 13 -1 13 -2 0 -11
-12 -7 -8 -10 15 -10 20 0 26 3 17 9 -8 4 -14 12 -14 16 0 4 6 12 14 16 9 6 3
9 -17 9 -21 0 -26 -3 -16 -9z"/>
<path d="M5026 3933 c-6 -14 -5 -15 5 -6 7 7 10 15 7 18 -3 3 -9 -2 -12 -12z"/>
<path d="M4825 3930 c-3 -6 1 -7 9 -4 18 7 21 14 7 14 -6 0 -13 -4 -16 -10z"/>
<path d="M5060 3928 c0 -5 11 -8 25 -8 14 0 25 3 25 8 0 4 -11 7 -25 7 -14 0
-25 -3 -25 -7z"/>
<path d="M5139 3741 c8 -5 20 -7 27 -4 22 8 40 -8 23 -21 -8 -6 -15 -19 -15
-28 -2 -16 0 -16 21 0 13 9 18 20 13 23 -5 3 -9 9 -9 13 3 22 -3 26 -36 26
-26 0 -34 -3 -24 -9z"/>
<path d="M5235 3710 c0 -35 3 -40 20 -38 15 2 19 9 16 28 -1 14 -8 29 -15 33
-7 5 -3 7 9 5 16 -3 20 -11 19 -41 -1 -29 2 -35 11 -27 9 8 14 8 17 0 2 -6 4
8 4 32 1 31 -1 37 -7 23 -6 -15 -8 -16 -8 -4 -1 18 -21 29 -49 29 -13 0 -17
-9 -17 -40z m22 -22 c-3 -7 -5 -2 -5 12 0 14 2 19 5 13 2 -7 2 -19 0 -25z"/>
<path d="M5378 3743 c6 -2 18 -2 25 0 6 3 1 5 -13 5 -14 0 -19 -2 -12 -5z"/>
<path d="M5450 3745 c-1 -5 -3 -17 -4 -25 -2 -8 1 -26 5 -40 7 -24 7 -23 8 7
1 26 4 30 22 26 16 -4 20 -12 16 -29 -2 -13 0 -24 4 -24 5 0 9 11 9 24 0 13 6
27 13 29 6 3 -2 6 -20 6 -19 1 -36 8 -42 19 -6 9 -11 13 -11 7z"/>
<path d="M5488 3743 c6 -2 18 -2 25 0 6 3 1 5 -13 5 -14 0 -19 -2 -12 -5z"/>
<path d="M5550 3745 c-8 -37 -6 -55 6 -55 8 0 13 3 13 8 -4 22 4 31 29 35 21
3 21 4 -5 3 -18 -1 -35 3 -37 9 -3 6 -5 6 -6 0z"/>
<path d="M5650 3730 c0 -12 7 -20 18 -21 11 -1 9 -4 -8 -9 -14 -4 -19 -8 -11
-9 11 -1 11 -4 0 -18 -12 -16 -11 -16 8 0 21 18 21 18 26 0 4 -17 5 -17 6 1 1
19 1 19 23 0 19 -15 20 -16 9 -1 -11 14 -11 17 0 18 8 1 3 5 -11 9 -17 5 -19
8 -7 9 10 1 17 9 17 21 0 16 -7 20 -35 20 -28 0 -35 -4 -35 -20z m30 6 c0 -3
-4 -8 -10 -11 -5 -3 -10 -1 -10 4 0 6 5 11 10 11 6 0 10 -2 10 -4z m30 -6 c0
-5 -2 -10 -4 -10 -3 0 -8 5 -11 10 -3 6 -1 10 4 10 6 0 11 -4 11 -10z"/>
<path d="M4821 3703 c1 -21 3 -30 6 -20 2 9 12 17 21 17 14 1 14 2 -3 12 -19
11 -19 11 0 19 19 7 18 8 -2 8 -20 1 -23 -4 -22 -36z"/>
<path d="M4884 3700 c1 -15 8 -26 19 -28 14 -3 17 3 16 30 -2 30 -2 31 -6 6
-5 -34 -20 -37 -26 -5 -3 19 -4 19 -3 -3z"/>
<path d="M4940 3706 c0 -14 3 -27 8 -29 4 -3 7 8 7 24 0 16 -3 29 -7 29 -5 0
-8 -11 -8 -24z"/>
<path d="M4981 3703 c-1 -27 3 -33 19 -33 16 0 20 6 19 33 -2 30 -2 30 -6 5
-2 -16 -8 -28 -13 -28 -5 0 -11 12 -13 28 -4 25 -4 25 -6 -5z"/>
<path d="M5041 3698 c2 -28 2 -29 6 -8 3 14 10 28 17 32 7 5 5 8 -6 8 -14 0
-18 -8 -17 -32z"/>
<path d="M5077 3715 c-9 -22 2 -45 22 -44 10 0 11 2 4 6 -7 2 -13 14 -13 25 0
18 2 19 17 7 14 -12 16 -12 11 1 -7 21 -34 24 -41 5z"/>
<path d="M5134 3708 c-4 -7 -3 -8 4 -4 7 4 12 3 12 -3 0 -5 -6 -12 -12 -14
-10 -4 -10 -6 0 -6 7 -1 10 -5 7 -11 -3 -5 -1 -10 4 -10 6 0 11 14 11 30 0 30
-13 40 -26 18z"/>
<path d="M5344 3690 c-1 -16 3 -27 7 -24 11 6 12 54 2 54 -5 0 -8 -13 -9 -30z"/>
<path d="M5376 3704 c-9 -23 -8 -24 19 -24 27 0 32 9 13 28 -16 16 -25 15 -32
-4z m29 -4 c3 -5 -1 -10 -10 -10 -9 0 -13 5 -10 10 3 6 8 10 10 10 2 0 7 -4
10 -10z"/>
<path d="M5588 3713 c6 -2 18 -2 25 0 6 3 1 5 -13 5 -14 0 -19 -2 -12 -5z"/>
<path d="M5581 3678 c1 -17 2 -19 6 -5 2 9 8 17 13 17 5 0 11 -8 13 -17 4 -14
5 -12 6 5 1 16 -5 22 -19 22 -14 0 -20 -6 -19 -22z"/>
<path d="M5383 3663 c9 -2 23 -2 30 0 6 3 -1 5 -18 5 -16 0 -22 -2 -12 -5z"/>
<path d="M3200 3530 c0 -3 -13 -5 -29 -2 -16 2 -32 -1 -36 -9 -6 -9 -3 -11 8
-6 10 3 17 2 17 -3 0 -6 -7 -10 -15 -10 -8 0 -15 -5 -15 -11 0 -5 5 -7 10 -4
6 4 10 -8 10 -29 0 -35 1 -36 40 -36 29 0 40 4 40 15 0 10 -12 15 -37 17 l-38
1 35 4 c46 6 72 43 30 43 -11 0 -20 5 -20 11 0 6 6 9 13 6 8 -3 19 -2 26 3 9
5 4 9 -13 12 -14 3 -26 2 -26 -2z m-10 -14 c0 -3 -4 -8 -10 -11 -5 -3 -10 -1
-10 4 0 6 5 11 10 11 6 0 10 -2 10 -4z m35 -36 c-3 -5 -21 -9 -38 -9 l-32 2
35 7 c19 4 36 8 38 9 2 0 0 -3 -3 -9z m-17 -47 c-10 -2 -26 -2 -35 0 -10 3 -2
5 17 5 19 0 27 -2 18 -5z"/>
<path d="M3460 3525 c-1 -11 -2 -24 -1 -29 1 -4 -6 -14 -16 -22 -16 -12 -16
-13 6 -7 19 5 22 2 19 -13 -3 -14 -11 -18 -30 -16 -15 1 -29 -1 -31 -5 -3 -5
19 -8 49 -8 30 -1 54 3 54 8 0 4 -5 5 -11 1 -8 -4 -9 1 -4 16 5 15 4 20 -4 16
-6 -4 -11 -2 -11 3 0 6 8 11 18 12 11 1 9 4 -8 9 -17 5 -19 8 -7 9 18 1 23 26
7 36 -6 3 -7 -1 -4 -9 3 -9 1 -16 -4 -16 -6 0 -13 8 -15 18 -4 15 -5 14 -7 -3z"/>
<path d="M3810 3525 c-1 -11 -2 -28 -1 -37 1 -10 -4 -18 -11 -18 -10 0 -10 -2
1 -9 8 -5 11 -16 8 -25 -4 -9 -2 -16 3 -16 6 0 10 11 10 25 0 20 5 25 25 25
16 0 25 -6 25 -15 0 -8 -4 -15 -10 -15 -5 0 -10 6 -10 13 0 8 -4 7 -10 -3 -5
-8 -10 -19 -10 -25 0 -5 4 -4 9 4 6 9 11 10 15 2 4 -6 19 -10 34 -10 17 1 21
3 10 6 -21 5 -24 23 -5 23 8 0 8 3 -2 9 -11 7 -10 10 5 14 10 2 -3 5 -30 6
-34 1 -47 5 -43 14 2 6 1 21 -4 32 l-8 20 -1 -20z"/>
<path d="M3955 3529 c-23 -5 -16 -7 28 -8 31 0 57 1 57 3 0 8 -56 11 -85 5z"/>
<path d="M4075 3526 c-5 -6 -11 -20 -13 -31 -2 -18 -1 -19 11 -3 12 16 15 15
41 -8 23 -22 25 -28 14 -41 -11 -14 -14 -12 -23 10 -8 20 -14 24 -25 17 -8 -6
-11 -10 -5 -10 5 0 4 -5 -3 -12 -17 -17 -15 -33 3 -18 11 9 19 10 28 1 10 -8
17 -7 25 1 8 8 15 8 27 -2 16 -14 21 0 5 16 -6 6 -6 21 -1 42 8 25 7 32 -5 32
-8 0 -14 6 -15 13 0 6 -5 0 -11 -16 -5 -15 -14 -25 -19 -21 -5 3 -7 9 -4 14 9
14 -19 29 -30 16z m75 -38 c0 -18 -2 -20 -9 -8 -6 8 -7 18 -5 22 9 14 14 9 14
-14z"/>
<path d="M4240 3529 c0 -4 -8 -6 -17 -4 -10 1 -12 0 -5 -2 6 -3 12 -9 12 -15
0 -5 -6 -8 -13 -5 -8 3 -13 -3 -13 -14 0 -12 4 -15 10 -9 15 15 22 12 23 -10
1 -15 -5 -20 -25 -21 l-27 -2 25 -4 c14 -3 28 -10 32 -17 6 -8 8 -8 8 2 0 6
12 13 28 13 20 1 22 2 7 6 -33 8 -44 25 -12 19 15 -3 27 0 27 6 0 5 -7 8 -15
4 -13 -5 -19 5 -16 26 0 4 -7 4 -16 1 -11 -4 -14 -3 -9 5 4 7 16 12 26 12 14
0 18 -5 13 -17 -4 -11 -3 -14 5 -9 22 13 12 34 -18 38 -16 3 -30 1 -30 -3z"/>
<path d="M3267 3522 c7 -5 11 -24 10 -45 -2 -21 1 -37 7 -37 6 0 11 20 11 45
0 38 -3 45 -20 45 -13 0 -16 -3 -8 -8z"/>
<path d="M3310 3500 c0 -22 5 -30 18 -31 14 0 14 -2 -3 -9 -17 -7 -17 -9 -2
-9 25 -1 21 -19 -5 -24 -13 -2 -3 -4 22 -4 25 -1 37 1 28 4 -21 5 -24 23 -5
23 8 0 7 4 -3 10 -10 6 -11 10 -2 10 6 0 12 9 12 20 0 11 -6 20 -12 20 -9 0
-8 4 2 10 11 7 7 10 -17 10 -30 0 -33 -3 -33 -30z m30 -10 c0 -5 -4 -10 -10
-10 -5 0 -10 5 -10 10 0 6 5 10 10 10 6 0 10 -4 10 -10z"/>
<path d="M3409 3523 c-6 -30 -6 -73 0 -73 3 0 12 14 18 31 11 27 10 29 -4 17
-14 -11 -15 -10 -9 10 4 12 5 22 2 22 -3 0 -7 -3 -7 -7z"/>
<path d="M3540 3520 c9 -6 11 -13 5 -17 -5 -5 -11 -19 -13 -33 -2 -19 0 -22 8
-10 8 12 10 13 10 1 0 -8 3 -11 8 -7 4 4 7 23 7 42 0 28 -4 34 -20 34 -17 0
-17 -2 -5 -10z"/>
<path d="M3580 3510 c0 -15 7 -20 25 -20 14 0 25 4 25 9 0 5 -9 7 -20 4 -11
-3 -20 -1 -20 5 0 6 12 13 28 15 25 4 25 4 -5 6 -27 1 -33 -3 -33 -19z"/>
<path d="M3840 3510 c0 -12 7 -20 16 -20 14 0 14 3 4 15 -10 13 -9 15 10 15
16 0 20 -4 16 -15 -3 -8 -1 -15 4 -15 6 0 10 9 10 20 0 16 -7 20 -30 20 -23 0
-30 -4 -30 -20z"/>
<path d="M3943 3483 c-7 -15 -13 -36 -12 -47 1 -18 2 -17 8 4 6 21 14 26 49
28 37 3 42 1 42 -17 0 -12 -4 -21 -10 -21 -5 0 -10 7 -10 15 0 9 -9 15 -25 15
-16 0 -25 -6 -25 -15 0 -8 9 -15 19 -15 11 0 26 -3 35 -6 23 -9 30 20 15 56
-19 41 -68 43 -86 3z m60 10 c-7 -2 -21 -2 -30 0 -10 3 -4 5 12 5 17 0 24 -2
18 -5z m-6 -49 c-3 -3 -12 -4 -19 -1 -8 3 -5 6 6 6 11 1 17 -2 13 -5z"/>
<path d="M5272 3462 c-6 -18 -7 -30 -2 -27 6 4 10 -3 10 -14 0 -22 24 -29 35
-11 5 8 11 8 19 1 9 -8 13 -7 13 4 0 15 -8 18 -42 16 -19 -1 -19 -1 -2 10 10
6 25 8 33 5 16 -6 18 12 4 34 -9 13 -10 13 -10 0 0 -12 -2 -13 -9 -1 -7 11
-11 8 -17 -10 l-8 -24 -6 25 c-6 25 -6 25 -18 -8z"/>
<path d="M5416 3481 c-2 -3 0 -17 5 -31 7 -24 7 -24 8 -2 1 12 6 22 11 22 6 0
10 4 10 8 0 10 -29 12 -34 3z"/>
<path d="M3589 3471 c11 -7 11 -9 0 -14 -10 -4 -10 -6 -1 -6 18 -1 15 -19 -5
-24 -10 -3 0 -5 22 -5 22 0 32 2 23 5 -10 2 -18 9 -18 14 0 5 8 9 18 10 14 0
14 2 -3 8 l-20 8 20 5 c13 4 7 6 -15 7 -23 0 -30 -2 -21 -8z"/>
<path d="M4821 3443 c1 -21 3 -30 6 -20 2 9 12 17 21 17 14 1 14 2 -3 12 -19
11 -19 11 0 19 19 7 18 8 -2 8 -20 1 -23 -4 -22 -36z"/>
<path d="M4981 3445 c1 -22 3 -34 6 -27 4 10 8 10 19 1 9 -8 14 -8 14 -1 0 6
-5 14 -11 17 -6 4 -14 17 -19 29 -7 17 -9 13 -9 -19z"/>
<path d="M5046 3465 c-3 -9 -6 -22 -5 -28 0 -7 5 -1 10 12 5 13 8 26 5 28 -2
2 -6 -3 -10 -12z"/>
<path d="M5090 3449 c0 -24 -4 -30 -16 -25 -8 3 -12 2 -9 -4 15 -24 35 -9 35
25 0 19 -2 35 -5 35 -3 0 -5 -14 -5 -31z"/>
<path d="M4884 3455 c-8 -21 2 -45 20 -45 17 0 28 24 20 45 -4 8 -13 15 -20
15 -8 0 -17 -7 -20 -15z m31 -15 c0 -7 -6 -15 -12 -17 -8 -3 -13 4 -13 17 0
13 5 20 13 18 6 -3 12 -11 12 -18z"/>
<path d="M4941 3438 c2 -28 2 -29 6 -8 3 14 10 28 17 32 7 5 5 8 -6 8 -14 0
-18 -8 -17 -32z"/>
<path d="M5124 3455 c-8 -21 2 -45 20 -45 17 0 28 24 20 45 -4 8 -13 15 -20
15 -8 0 -17 -7 -20 -15z m31 -15 c0 -7 -6 -15 -12 -17 -8 -3 -13 4 -13 17 0
13 5 20 13 18 6 -3 12 -11 12 -18z"/>
<path d="M5182 3440 c0 -19 2 -27 5 -17 2 9 2 25 0 35 -3 9 -5 1 -5 -18z"/>
<path d="M5211 3438 c2 -30 2 -31 6 -5 5 34 20 35 26 2 4 -23 4 -23 3 2 -1 18
-7 29 -18 31 -15 3 -18 -3 -17 -30z"/>
<path d="M3670 3446 c0 -2 8 -10 18 -17 15 -13 16 -12 3 4 -13 16 -21 21 -21
13z"/>
<path d="M5380 3440 c13 -9 13 -11 0 -20 -12 -8 -12 -10 5 -10 14 0 21 6 21
20 0 14 -7 20 -21 20 -17 0 -17 -2 -5 -10z"/>
<path d="M5436 3408 c3 -5 10 -6 15 -3 13 9 11 12 -6 12 -8 0 -12 -4 -9 -9z"/>
<path d="M5460 3355 c0 -8 29 -12 39 -5 9 5 4 8 -13 8 -14 0 -26 -2 -26 -3z"/>
<path d="M3985 2659 c-12 -19 4 -59 25 -59 10 0 21 4 24 8 3 5 -5 8 -17 8 -16
-1 -23 6 -25 23 -3 21 0 23 22 19 14 -3 23 -1 20 3 -7 12 -42 11 -49 -2z"/>
<path d="M4270 2634 c0 -31 3 -35 21 -32 48 7 51 68 4 68 -22 0 -25 -4 -25
-36z m48 4 c-5 -34 -38 -37 -38 -4 0 20 5 26 21 26 15 0 20 -5 17 -22z"/>
<path d="M4542 2638 c-2 -34 1 -38 21 -37 15 1 17 3 5 6 -10 2 -18 17 -21 36
-4 31 -4 31 -5 -5z"/>
<path d="M4658 2665 c-6 -7 3 -65 11 -65 7 0 7 58 -1 65 -2 3 -7 3 -10 0z"/>
<path d="M4751 2632 c1 -33 2 -34 8 -12 4 14 13 24 19 23 21 -5 13 14 -8 20
-17 4 -20 0 -19 -31z"/>
<path d="M4057 2645 c-9 -22 3 -46 22 -43 10 2 16 13 16 28 0 28 -29 40 -38
15z m33 -15 c0 -11 -4 -20 -9 -20 -14 0 -23 18 -16 30 10 17 25 11 25 -10z"/>
<path d="M4150 2635 c0 -31 -18 -33 -30 -2 -5 12 -9 17 -9 10 -2 -24 12 -43
30 -43 14 0 19 7 19 30 0 17 -2 30 -5 30 -3 0 -5 -11 -5 -25z"/>
<path d="M4175 2650 c-4 -6 -4 -14 0 -18 4 -4 10 -1 12 6 8 20 21 14 26 -13 4
-23 4 -23 3 2 -1 29 -28 44 -41 23z"/>
<path d="M4238 2630 c2 -16 7 -30 11 -30 3 0 6 14 6 30 0 17 -5 30 -11 30 -6
0 -9 -13 -6 -30z"/>
<path d="M4347 2645 c-9 -22 3 -46 22 -43 10 2 16 13 16 28 0 28 -29 40 -38
15z m33 -15 c0 -11 -4 -20 -9 -20 -14 0 -23 18 -16 30 10 17 25 11 25 -10z"/>
<path d="M4401 2644 c0 -11 3 -14 6 -6 3 7 2 16 -1 19 -3 4 -6 -2 -5 -13z"/>
<path d="M4422 2635 c-7 -15 -11 -30 -8 -32 7 -7 28 36 24 49 -2 6 -9 -2 -16
-17z"/>
<path d="M4452 2640 c-14 -23 -16 -40 -3 -40 7 0 23 51 17 57 -1 1 -7 -7 -14
-17z"/>
<path d="M4481 2628 c1 -28 2 -30 7 -10 4 13 12 23 17 23 6 0 13 -10 17 -23 4
-14 6 -17 7 -6 2 28 -10 48 -30 48 -15 0 -19 -7 -18 -32z"/>
<path d="M4605 2651 c-3 -7 0 -8 9 -5 11 4 16 0 16 -15 0 -12 -5 -21 -11 -21
-5 0 -7 5 -4 10 3 6 1 10 -4 10 -6 0 -11 -7 -11 -15 0 -8 9 -15 21 -15 16 0
20 5 17 27 -3 28 -22 41 -33 24z"/>
<path d="M4694 2645 c-9 -23 3 -45 23 -44 17 1 17 2 0 6 -24 6 -17 39 7 35 11
-2 15 1 11 7 -9 16 -35 13 -41 -4z"/>
<path d="M3985 2399 c-12 -19 4 -59 25 -59 10 0 21 4 24 8 3 5 -5 8 -17 8 -16
-1 -23 6 -25 23 -3 21 0 23 22 19 14 -3 23 -1 20 3 -7 12 -42 11 -49 -2z"/>
<path d="M4193 2375 c0 -22 2 -30 4 -17 2 12 2 30 0 40 -3 9 -5 -1 -4 -23z"/>
<path d="M4280 2375 c0 -28 4 -35 19 -35 25 0 30 9 24 43 -4 18 -12 27 -24 27
-15 0 -19 -7 -19 -35z m32 -10 c0 -5 -5 -11 -11 -13 -6 -2 -11 4 -11 13 0 9 5
15 11 13 6 -2 11 -8 11 -13z"/>
<path d="M4056 2380 c4 -14 8 -33 8 -42 0 -23 11 -11 24 30 7 19 7 30 2 27 -6
-4 -10 -14 -10 -23 -1 -13 -5 -10 -16 8 l-15 25 7 -25z"/>
<path d="M4117 2393 c-4 -3 -7 -17 -7 -30 0 -23 23 -32 35 -13 3 6 -1 7 -9 4
-12 -4 -16 0 -16 16 0 16 4 20 16 16 8 -3 12 -2 9 4 -7 12 -19 13 -28 3z"/>
<path d="M4227 2393 c-4 -3 -7 -17 -7 -30 0 -23 23 -32 35 -13 3 6 -1 7 -9 4
-12 -4 -16 0 -16 16 0 16 4 20 16 16 8 -3 12 -2 9 4 -7 12 -19 13 -28 3z"/>
<path d="M4345 2391 c-3 -7 0 -8 9 -5 11 4 16 0 16 -15 0 -12 -5 -21 -11 -21
-5 0 -7 5 -4 10 3 6 1 10 -4 10 -6 0 -11 -7 -11 -15 0 -8 9 -15 21 -15 16 0
20 5 17 27 -3 28 -22 41 -33 24z"/>
<path d="M4401 2368 c2 -28 2 -29 6 -8 3 14 10 28 17 32 7 5 5 8 -6 8 -14 0
-18 -8 -17 -32z"/>
<path d="M4441 2368 c2 -28 2 -29 6 -8 3 14 10 28 17 32 7 5 5 8 -6 8 -14 0
-18 -8 -17 -32z"/>
<path d="M4482 2370 c0 -19 2 -27 5 -17 2 9 2 25 0 35 -3 9 -5 1 -5 -18z"/>
<path d="M4504 2385 c-9 -23 3 -45 23 -44 17 1 17 2 1 6 -20 5 -22 12 -8 33 6
10 10 11 10 3 0 -7 4 -13 10 -13 5 0 7 7 4 15 -4 8 -13 15 -20 15 -8 0 -17 -7
-20 -15z"/>
<path d="M4561 2368 c2 -28 2 -29 6 -8 3 14 10 28 17 32 7 5 5 8 -6 8 -14 0
-18 -8 -17 -32z"/>
<path d="M3985 2140 c-3 -5 3 -15 15 -22 26 -16 26 -32 0 -25 -11 3 -18 1 -14
-4 3 -5 14 -9 25 -9 27 0 25 37 -3 46 l-23 8 25 7 c23 6 23 7 3 8 -12 1 -25
-3 -28 -9z"/>
<path d="M4311 2112 c2 -31 3 -32 6 -9 5 30 13 33 32 15 10 -11 11 -10 6 4 -4
9 -15 18 -26 21 -16 4 -19 0 -18 -31z"/>
<path d="M4046 2125 c-8 -22 4 -45 23 -44 10 0 11 2 4 6 -7 2 -13 14 -13 26 0
18 2 19 10 7 5 -8 12 -11 15 -8 10 9 -4 28 -20 28 -7 0 -15 -7 -19 -15z"/>
<path d="M4106 2133 c-3 -3 -6 -16 -5 -27 0 -19 1 -19 8 -3 9 25 25 23 33 -5
5 -21 6 -20 7 7 1 31 15 25 24 -10 3 -12 5 -8 4 10 -2 25 -6 30 -33 32 -17 1
-34 0 -38 -4z"/>
<path d="M4208 2133 c15 -6 16 -43 1 -43 -5 0 -7 5 -4 10 3 6 1 10 -5 10 -18
0 -6 -25 13 -28 13 -3 17 4 17 27 0 23 -4 31 -17 30 -11 0 -13 -3 -5 -6z"/>
<path d="M4251 2098 c0 -24 3 -37 6 -30 2 6 11 12 18 12 16 0 26 25 19 45 -4
8 -15 15 -25 15 -16 0 -19 -7 -18 -42z m31 0 c-15 -15 -26 -4 -18 18 5 13 9
15 18 6 9 -9 9 -15 0 -24z"/>
<path d="M4374 2125 c-8 -21 3 -45 20 -45 20 0 29 16 21 40 -7 23 -33 27 -41
5z m31 -15 c0 -7 -6 -15 -12 -17 -8 -3 -13 4 -13 17 0 13 5 20 13 18 6 -3 12
-11 12 -18z"/>
<path d="M4431 2108 c1 -22 3 -26 6 -13 3 11 10 26 15 33 8 9 6 12 -6 12 -12
0 -16 -9 -15 -32z"/>
<path d="M4474 2125 c-9 -23 3 -45 23 -44 17 1 17 2 1 6 -10 2 -18 13 -18 24
0 21 16 26 23 7 3 -8 6 -6 6 5 1 21 -27 23 -35 2z"/>
<path d="M4138 2023 c7 -3 16 -2 19 1 4 3 -2 6 -13 5 -11 0 -14 -3 -6 -6z"/>
<path d="M4388 2023 c17 -2 47 -2 65 0 17 2 3 4 -33 4 -36 0 -50 -2 -32 -4z"/>
<path d="M2962 1925 c-15 -32 -15 -38 -2 -30 14 9 13 -8 -2 -23 -9 -9 -9 -12
0 -12 7 0 12 5 12 11 0 5 4 8 9 5 5 -3 8 2 7 11 0 10 7 19 17 21 9 2 17 -1 17
-7 0 -6 -6 -11 -12 -11 -9 0 -8 -4 2 -10 12 -7 12 -13 4 -27 -10 -16 -7 -18
18 -19 15 -1 28 3 28 8 0 5 -4 6 -10 3 -14 -9 -12 9 3 24 10 10 9 11 -5 6 -14
-6 -18 -2 -18 14 0 13 7 21 18 22 13 0 14 2 2 6 -8 3 -18 11 -22 17 -6 8 -8 8
-8 0 0 -7 -11 -14 -25 -16 -21 -5 -25 -2 -20 13 9 28 0 23 -13 -6z"/>
<path d="M3375 1924 l-30 -24 30 0 c21 0 26 3 16 9 -18 12 4 25 27 16 14 -5
14 -7 2 -15 -11 -7 -8 -10 13 -10 34 0 34 1 -1 27 l-28 20 -29 -23z"/>
<path d="M3096 1913 c1 -15 -3 -34 -9 -42 -9 -11 -9 -13 0 -8 7 5 13 -1 16
-15 4 -20 4 -19 6 5 1 20 5 26 14 21 8 -5 8 -2 -2 9 -11 14 -11 17 0 17 11 0
11 2 -1 10 -13 9 -13 11 0 20 12 8 11 10 -6 10 -17 0 -21 -5 -18 -27z"/>
<path d="M3140 1920 c0 -11 4 -20 10 -20 5 0 7 7 4 15 -4 10 0 15 11 15 11 0
15 -5 11 -15 -3 -8 -1 -15 4 -15 6 0 10 9 10 20 0 15 -7 20 -25 20 -18 0 -25
-5 -25 -20z"/>
<path d="M3223 1883 c-1 -32 1 -48 4 -35 2 12 8 20 12 17 5 -2 6 8 4 23 l-3
27 10 -25 c6 -14 9 -33 6 -42 -2 -10 0 -18 6 -18 5 0 8 21 6 50 -4 49 -4 50
24 50 18 0 28 -5 28 -15 0 -8 -9 -15 -20 -15 -16 0 -20 -7 -20 -35 0 -31 3
-35 25 -35 17 0 25 5 24 18 0 10 -3 12 -6 5 -9 -23 -33 -14 -33 12 0 18 5 25
20 25 15 0 20 7 20 25 0 24 -3 25 -53 25 l-54 0 0 -57z"/>
<path d="M1525 1899 c-3 -4 2 -6 10 -5 21 3 28 13 10 13 -9 0 -18 -4 -20 -8z"/>
<path d="M3621 1894 c0 -11 3 -14 6 -6 3 7 2 16 -1 19 -3 4 -6 -2 -5 -13z"/>
<path d="M3149 1881 c11 -7 11 -9 0 -14 -10 -4 -10 -6 -1 -6 18 -1 15 -19 -5
-24 -10 -3 0 -5 22 -5 22 0 32 2 23 5 -21 5 -24 23 -5 23 9 0 8 3 -2 9 -11 7
-11 9 0 14 8 3 1 6 -16 6 -21 0 -26 -2 -16 -8z"/>
<path d="M3985 1879 c-12 -19 4 -59 25 -59 10 0 21 4 24 8 3 5 -5 8 -17 8 -16
-1 -23 6 -25 23 -3 21 0 23 22 19 14 -3 23 -1 20 3 -7 12 -42 11 -49 -2z"/>
<path d="M4198 1883 c-34 -9 -32 -63 3 -63 15 0 19 7 19 35 0 19 -1 34 -2 34
-2 -1 -10 -3 -20 -6z m12 -33 c0 -11 -4 -20 -9 -20 -14 0 -23 18 -16 30 10 17
25 11 25 -10z"/>
<path d="M4303 1855 c0 -22 2 -30 4 -17 2 12 2 30 0 40 -3 9 -5 -1 -4 -23z"/>
<path d="M3360 1856 c0 -14 5 -26 11 -26 6 0 8 9 4 20 -6 17 -2 20 30 20 32 0
36 -3 30 -20 -4 -12 -2 -20 5 -20 6 0 10 10 8 23 -2 18 -10 23 -45 25 -40 3
-43 1 -43 -22z"/>
<path d="M4057 1865 c-9 -22 3 -46 22 -43 10 2 16 13 16 28 0 28 -29 40 -38
15z m33 -15 c0 -11 -4 -20 -9 -20 -14 0 -23 18 -16 30 10 17 25 11 25 -10z"/>
<path d="M4110 1870 c0 -7 8 -9 19 -5 15 5 21 0 24 -20 4 -24 4 -24 3 2 -1 21
-7 29 -23 31 -13 2 -23 -2 -23 -8z"/>
<path d="M4242 1850 c0 -19 2 -27 5 -17 2 9 2 25 0 35 -3 9 -5 1 -5 -18z"/>
<path d="M4268 1850 c2 -16 7 -30 11 -30 3 0 6 14 6 30 0 17 -5 30 -11 30 -6
0 -9 -13 -6 -30z"/>
<path d="M4327 1865 c-9 -22 3 -46 22 -43 10 2 16 13 16 28 0 28 -29 40 -38
15z m33 -15 c0 -11 -4 -20 -9 -20 -14 0 -23 18 -16 30 10 17 25 11 25 -10z"/>
<path d="M4387 1874 c-4 -4 -7 -12 -7 -18 0 -6 5 -5 12 2 18 18 26 15 31 -13
4 -23 4 -23 3 2 -1 27 -24 42 -39 27z"/>
<path d="M2956 1841 c-4 -5 3 -7 14 -4 23 6 26 13 6 13 -8 0 -17 -4 -20 -9z"/>
<path d="M3622 1810 c0 -19 2 -27 5 -17 2 9 2 25 0 35 -3 9 -5 1 -5 -18z"/>
<path d="M3981 1593 c1 -21 3 -30 6 -20 2 9 13 17 24 17 12 0 19 7 19 20 0 15
-7 20 -25 20 -22 0 -25 -4 -24 -37z m39 17 c0 -5 -7 -10 -15 -10 -8 0 -15 5
-15 10 0 6 7 10 15 10 8 0 15 -4 15 -10z"/>
<path d="M4047 1605 c-4 -8 -2 -15 3 -15 6 0 10 5 10 10 0 21 19 9 23 -15 4
-23 4 -23 3 2 -1 31 -30 44 -39 18z"/>
<path d="M4110 1611 c0 -6 8 -8 18 -5 16 5 16 5 0 -9 -24 -19 -23 -37 3 -37
16 0 20 5 17 27 -3 26 -38 48 -38 24z"/>
<path d="M4165 1609 c-4 -6 1 -17 11 -25 18 -15 18 -15 1 -10 -11 3 -16 2 -12
-4 8 -14 35 -13 35 1 0 7 -8 18 -17 26 -17 14 -17 14 0 9 11 -3 16 -2 12 4 -8
13 -22 13 -30 -1z"/>
<path d="M4227 1614 c-4 -4 -7 -18 -7 -31 0 -16 6 -23 20 -23 11 0 20 4 20 10
0 5 -7 7 -15 4 -10 -4 -15 0 -15 15 0 22 15 29 23 11 3 -6 4 -5 3 2 -3 14 -20
21 -29 12z"/>
<path d="M4274 1595 c-4 -14 -4 -29 0 -32 3 -4 6 3 6 13 0 11 5 25 12 32 9 9
9 12 0 12 -6 0 -14 -11 -18 -25z"/>
<path d="M4028 1503 c7 -3 16 -2 19 1 4 3 -2 6 -13 5 -11 0 -14 -3 -6 -6z"/>
<path d="M3663 1235 c0 -8 4 -12 9 -9 5 3 6 10 3 15 -9 13 -12 11 -12 -6z"/>
<path d="M3738 1223 c7 -3 16 -2 19 1 4 3 -2 6 -13 5 -11 0 -14 -3 -6 -6z"/>
<path d="M3833 822 c-20 -3 -23 -9 -21 -45 l1 -42 4 38 c3 24 9 37 19 37 12 0
13 -4 3 -22 -9 -19 -9 -21 1 -11 10 9 16 8 27 -3 8 -7 11 -18 8 -24 -3 -5 -1
-10 4 -10 6 0 11 17 11 39 0 41 -12 50 -57 43z m47 -28 c0 -8 -4 -12 -10 -9
-5 3 -10 10 -10 16 0 5 5 9 10 9 6 0 10 -7 10 -16z"/>
<path d="M3928 818 c-7 -4 -9 -8 -4 -8 5 0 4 -6 -2 -13 -6 -7 -8 -24 -4 -38 6
-22 7 -21 12 11 4 31 9 36 40 40 l35 6 -32 5 c-18 3 -38 2 -45 -3z"/>
<path d="M4018 801 c-4 -28 -3 -28 29 -19 18 5 38 6 45 2 8 -5 9 -2 5 10 -4
10 -7 22 -7 27 0 5 -9 9 -20 9 -14 0 -20 -7 -21 -22 l0 -23 -9 23 c-12 29 -17
28 -22 -7z"/>
<path d="M4124 805 c0 -18 3 -21 12 -14 8 7 14 6 17 -3 4 -11 6 -10 6 0 1 7 6
10 11 7 6 -3 10 1 10 10 0 9 -4 13 -10 10 -5 -3 -10 -1 -10 4 0 6 -8 11 -18
11 -12 0 -18 -8 -18 -25z"/>
<path d="M4192 805 c0 -16 2 -22 5 -12 2 9 2 23 0 30 -3 6 -5 -1 -5 -18z"/>
<path d="M3621 791 c-1 -25 -5 -32 -16 -27 -8 3 -15 1 -15 -4 0 -15 30 -12 36
4 3 8 4 25 1 38 -3 17 -5 14 -6 -11z"/>
<path d="M3659 801 c11 -7 10 -11 -4 -19 -10 -5 -15 -14 -11 -21 10 -16 46
-14 46 3 0 27 -12 46 -29 46 -13 0 -13 -2 -2 -9z m11 -31 c0 -5 -5 -10 -11
-10 -5 0 -7 5 -4 10 3 6 8 10 11 10 2 0 4 -4 4 -10z"/>
<path d="M3707 780 c5 -27 10 -36 17 -29 2 2 6 15 9 29 2 14 2 19 0 13 -3 -7
-8 -13 -13 -13 -5 0 -10 6 -13 13 -2 6 -2 1 0 -13z"/>
<path d="M3768 803 c15 -6 16 -43 1 -43 -5 0 -7 5 -4 10 3 6 1 10 -5 10 -21 0
-4 -25 18 -28 14 -2 22 2 22 11 0 28 -12 47 -29 46 -10 0 -11 -2 -3 -6z"/>
<path d="M3970 791 c0 -5 -8 -12 -17 -14 -17 -4 -17 -5 0 -6 19 -1 24 -21 5
-21 -6 0 -8 -3 -5 -7 4 -3 16 3 27 15 12 12 16 22 10 22 -6 0 -8 5 -5 10 3 6
1 10 -4 10 -6 0 -11 -4 -11 -9z"/>
<path d="M4050 770 c-13 -9 -13 -10 0 -10 13 0 13 -1 0 -10 -9 -6 -10 -10 -3
-10 6 0 15 5 18 10 5 8 11 7 21 -1 12 -10 15 -10 12 2 -3 13 -18 29 -28 29 -3
0 -12 -5 -20 -10z"/>
<path d="M4138 763 c12 -2 32 -2 45 0 12 2 2 4 -23 4 -25 0 -35 -2 -22 -4z"/>
<path d="M4138 743 c12 -2 32 -2 45 0 12 2 2 4 -23 4 -25 0 -35 -2 -22 -4z"/>
<path d="M3425 686 c-58 -26 -119 -119 -140 -213 -3 -19 -13 -33 -21 -33 -8 0
-14 -7 -14 -15 0 -8 7 -15 15 -15 8 0 15 -7 15 -16 0 -40 63 -165 101 -198 21
-20 43 -36 48 -36 5 0 16 -3 25 -6 34 -13 14 22 -22 38 -45 21 -76 66 -108
153 l-24 65 85 0 c69 0 85 3 85 15 0 12 -16 15 -84 15 l-85 0 18 53 c11 30 26
67 34 84 19 36 82 93 102 93 8 0 15 7 15 15 0 18 -6 18 -45 1z"/>
<path d="M3593 673 c48 -2 125 -2 170 0 45 1 6 3 -88 3 -93 0 -130 -2 -82 -3z"/>
<path d="M3800 541 c0 -16 -3 -38 -6 -48 -5 -15 -4 -15 5 -3 9 13 11 13 11 1
0 -11 4 -10 16 5 13 16 15 16 10 2 -3 -10 -1 -18 4 -18 6 0 10 7 10 16 0 13 3
14 13 5 11 -8 13 -5 9 19 -2 17 -9 30 -16 31 -6 0 -2 4 9 9 15 7 10 9 -22 9
-41 1 -43 0 -43 -28z m34 11 c-7 -4 -14 -18 -17 -32 -4 -21 -4 -20 -6 8 -1 24
3 32 17 32 11 0 13 -3 6 -8z m23 -28 c-3 -3 -12 -4 -19 -1 -8 3 -5 6 6 6 11 1
17 -2 13 -5z"/>
<path d="M3905 535 c0 -31 3 -35 25 -35 20 0 22 -2 10 -10 -12 -7 -8 -10 15
-10 23 0 27 3 15 10 -13 9 -13 10 0 10 13 0 13 1 0 10 -10 6 -11 10 -2 10 6 0
12 11 12 25 0 20 -5 25 -25 25 -20 0 -25 -5 -25 -24 0 -13 6 -27 13 -29 7 -3
5 -6 -5 -6 -13 -1 -18 7 -18 29 0 17 -3 30 -7 30 -5 0 -8 -16 -8 -35z"/>
<path d="M3595 549 c-12 -19 4 -59 25 -59 10 0 21 4 24 8 3 5 -5 8 -17 8 -16
-1 -23 6 -25 23 -3 21 0 23 22 19 14 -3 23 -1 20 3 -7 12 -42 11 -49 -2z"/>
<path d="M3671 529 c-13 -39 -14 -49 -1 -29 8 12 13 13 29 3 18 -11 18 -10 8
23 -13 42 -22 43 -36 3z m24 1 c3 -5 1 -10 -4 -10 -6 0 -11 5 -11 10 0 6 2 10
4 10 3 0 8 -4 11 -10z"/>
<path d="M3730 546 c0 -8 9 -18 20 -21 27 -9 26 -29 -1 -22 -16 4 -19 3 -11
-5 14 -14 42 -3 42 16 0 8 -10 18 -22 22 l-23 8 25 7 25 7 -27 1 c-18 1 -28
-4 -28 -13z"/>
<path d="M2570 441 c0 -22 -3 -48 -7 -58 -3 -10 -2 -15 2 -10 12 10 23 107 13
107 -4 0 -8 -18 -8 -39z"/>
<path d="M2608 473 c6 -2 18 -2 25 0 6 3 1 5 -13 5 -14 0 -19 -2 -12 -5z"/>
<path d="M2703 426 c-5 -30 -6 -53 -1 -50 4 3 8 14 8 24 0 39 11 50 51 50 28
0 39 4 39 15 0 11 -11 15 -43 15 l-44 0 -10 -54z m75 37 c-10 -2 -28 -2 -40 0
-13 2 -5 4 17 4 22 1 32 -1 23 -4z"/>
<path d="M2865 470 c17 -4 22 -8 13 -9 -24 -1 -25 -51 -2 -51 11 0 15 -6 11
-20 -3 -11 -1 -20 4 -20 5 0 9 9 9 20 0 11 7 20 15 20 22 0 20 50 -2 51 -12 1
-10 4 7 9 19 6 12 8 -30 8 -45 0 -50 -2 -25 -8z m48 -27 c-7 -2 -21 -2 -30 0
-10 3 -4 5 12 5 17 0 24 -2 18 -5z m0 -20 c-7 -2 -21 -2 -30 0 -10 3 -4 5 12
5 17 0 24 -2 18 -5z"/>
<path d="M2966 453 c1 -16 3 -36 3 -45 1 -10 5 -18 10 -18 5 0 7 9 4 20 -6 21
3 25 33 13 16 -6 16 -7 -2 -14 -17 -7 -17 -8 -1 -8 9 -1 17 -5 17 -10 0 -5 -8
-12 -17 -14 -10 -3 0 -5 22 -5 22 0 32 2 23 5 -10 2 -18 9 -18 14 0 5 8 9 18
10 14 0 14 2 -3 9 -17 7 -17 9 -2 9 12 1 17 9 17 31 0 30 -1 30 -53 30 -51 0
-53 -1 -51 -27z m34 2 c0 -8 -4 -15 -10 -15 -5 0 -10 7 -10 15 0 8 5 15 10 15
6 0 10 -7 10 -15z m30 -15 c0 -5 -5 -10 -11 -10 -5 0 -7 5 -4 10 3 6 8 10 11
10 2 0 4 -4 4 -10z m30 0 c0 -5 -4 -10 -10 -10 -5 0 -10 5 -10 10 0 6 5 10 10
10 6 0 10 -4 10 -10z"/>
<path d="M2630 445 c0 -8 -7 -15 -16 -15 -8 0 -12 5 -9 10 3 6 1 10 -4 10 -6
0 -11 -18 -11 -40 0 -22 4 -40 10 -40 5 0 9 10 7 21 -3 32 21 35 34 5 12 -26
29 -35 29 -16 0 6 -4 10 -10 10 -14 0 -12 27 3 33 7 3 5 6 -5 6 -10 1 -18 5
-18 10 0 5 8 12 18 14 13 4 11 5 -5 6 -14 1 -23 -5 -23 -14z"/>
<path d="M2835 450 c-3 -5 -1 -10 4 -10 6 0 11 5 11 10 0 6 -2 10 -4 10 -3 0
-8 -4 -11 -10z"/>
<path d="M2748 433 c12 -2 30 -2 40 0 9 3 -1 5 -23 4 -22 0 -30 -2 -17 -4z"/>
<path d="M2832 405 c0 -16 2 -22 5 -12 2 9 2 23 0 30 -3 6 -5 -1 -5 -18z"/>
<path d="M2728 412 c7 -5 10 -16 6 -25 -5 -13 -1 -17 17 -16 21 0 21 1 6 8
-16 6 -16 9 -5 18 7 6 22 13 33 16 11 2 0 5 -25 6 -27 0 -40 -3 -32 -7z"/>
<path d="M2780 392 c0 -12 19 -26 26 -19 2 2 -2 10 -11 17 -9 8 -15 8 -15 2z"/>
<path d="M2857 393 c-4 -3 -7 -11 -7 -17 0 -6 5 -5 12 2 6 6 9 14 7 17 -3 3
-9 2 -12 -2z"/>
<path d="M2920 391 c0 -5 5 -13 10 -16 6 -3 10 -2 10 4 0 5 -4 13 -10 16 -5 3
-10 2 -10 -4z"/>
<path d="M3810 303 c-1 -7 -2 -20 -2 -28 0 -8 1 -25 2 -37 2 -22 2 -22 10 2 8
24 8 24 9 3 1 -19 6 -23 34 -22 30 2 30 2 5 6 -24 4 -28 9 -28 38 0 29 4 34
28 38 25 4 25 4 -5 6 -28 1 -33 -3 -34 -21 -1 -22 -1 -22 -9 2 -4 14 -9 19
-10 13z"/>
<path d="M3907 290 c-3 -11 -1 -20 4 -20 5 0 9 6 9 13 0 8 4 7 11 -3 8 -12 10
-12 7 4 -4 27 -24 31 -31 6z"/>
<path d="M3948 288 c-2 -14 -12 -25 -28 -29 -15 -4 -18 -7 -8 -8 9 -1 21 -8
26 -17 8 -15 10 -15 15 0 4 9 14 16 24 17 12 1 10 3 -7 9 -25 8 -25 8 -2 9 17
1 22 6 20 18 -5 27 -36 28 -40 1z m32 2 c0 -5 -4 -10 -10 -10 -5 0 -10 5 -10
10 0 6 5 10 10 10 6 0 10 -4 10 -10z"/>
<path d="M3601 269 c-13 -39 -14 -49 -1 -29 8 12 13 13 29 3 18 -11 18 -10 8
23 -13 42 -22 43 -36 3z m24 1 c3 -5 1 -10 -4 -10 -6 0 -11 5 -11 10 0 6 2 10
4 10 3 0 8 -4 11 -10z"/>
<path d="M3664 286 c-10 -26 1 -51 23 -54 17 -3 24 3 29 22 3 14 3 30 -1 35
-9 16 -45 13 -51 -3z m46 -15 c0 -10 -7 -22 -16 -25 -23 -9 -24 -8 -24 19 0
18 5 25 20 25 13 0 20 -7 20 -19z"/>
<path d="M3740 286 c0 -8 7 -16 15 -20 24 -9 18 -28 -6 -21 -15 5 -19 4 -15
-4 10 -16 43 -13 50 4 3 9 -3 19 -17 26 -21 12 -21 12 -2 20 19 7 19 8 -2 8
-13 1 -23 -5 -23 -13z"/>
<path d="M3854 265 c0 -14 5 -25 12 -25 7 0 11 8 9 18 -2 9 -4 20 -4 25 -2 19
-17 4 -17 -18z"/>
<path d="M3905 230 c-3 -6 1 -7 9 -4 18 7 21 14 7 14 -6 0 -13 -4 -16 -10z"/>
</g>
</svg>
