<?xml version="1.0" standalone="no"?><!DOCTYPE svg PUBLIC "-//W3C//DTD SVG 1.1//EN" "http://www.w3.org/Graphics/SVG/1.1/DTD/svg11.dtd"><svg class="icon" width="200px" height="200.00px" viewBox="0 0 1024 1024" version="1.1" xmlns="http://www.w3.org/2000/svg"><path fill="#0c6bd9" d="M15.913825 1024l67.762778 0 0-392.094793 193.174936 0 0 125.470027-127.434602 0 0.024801 266.043129 0.986126 0.581637 196.71495 0 0-724.489418 456.641148 0 0 722.971848c0 1.933869-0.1553 0.183644 0.505463 1.517571l205.311368 0 0.986126-0.581637 0.025391-190.153376-136.03161 0 0-338.972733 136.03161 0 0-265.612659-67.762778 0c-1.165045 0-1.51698 0.352525-1.51698 1.518161l0 148.743183-66.751852 0 0-149.755291-597.72798 0 0 151.778915-193.174936 0 0-152.284969-68.774295 0 0 116.870066-0.604076 148.73964 0.604076 0.002952 261.949231 0 0 66.782557-258.409217 0c-1.74373 0-1.95808 0.374373-3.540014 0.506054l0 461.913082 1.011517 0.506054z"  /><path fill="#0c6bd9" d="M12.373811 98.151983 12.373811 165.438823 1011.626189 165.438823 1011.626189 98.151983 861.941758 98.151983 861.941758 0 724.391987 0 724.391987 98.151983 296.070952 98.151983 296.070952 0 159.530926 0 159.530926 97.644158Z"  /><path fill="#0c6bd9" d="M411.364988 563.101387 611.117441 563.101387 611.117441 619.257407 411.364988 619.257407 411.364988 695.649671 747.143737 695.649671 747.143737 488.728615 483.68284 488.728615 483.68284 437.627227 747.143737 437.627227 747.143737 361.234964 411.364988 361.234964Z"  /><path fill="#0c6bd9" d="M413.894075 1024l332.74656 0c0.34662-0.617067 0.505463-0.540893 0.505463-1.517571l0-102.703514-243.744288 0-0.201949-15.184564 1.212876-39.565488 226.551453-1.408329 16.181909 0 0-103.209568c0-1.165636-0.351935-1.517571-1.51698-1.517571l-331.22899 0c-1.165045 0-1.51698 0.351935-1.51698 1.517571l0.024801 263.007397 0.986126 0.581637z"  /></svg>